<?xml version="1.0" encoding="UTF-8" standalone="no"?>
<!-- Created with Inkscape (http://www.inkscape.org/) -->

<svg
   xmlns:dc="http://purl.org/dc/elements/1.1/"
   xmlns:cc="http://creativecommons.org/ns#"
   xmlns:rdf="http://www.w3.org/1999/02/22-rdf-syntax-ns#"
   xmlns:svg="http://www.w3.org/2000/svg"
   xmlns="http://www.w3.org/2000/svg"
   xmlns:sodipodi="http://sodipodi.sourceforge.net/DTD/sodipodi-0.dtd"
   xmlns:inkscape="http://www.inkscape.org/namespaces/inkscape"
   width="1280"
   height="1280"
   viewBox="0 0 1280 1280"
   version="1.1"
   id="svg8"
   inkscape:version="0.92.0 r"
   sodipodi:docname="logo.svg">
  <defs
     id="defs2" />
  <sodipodi:namedview
     id="base"
     pagecolor="#ffffff"
     bordercolor="#666666"
     borderopacity="1.0"
     inkscape:pageopacity="0.0"
     inkscape:pageshadow="2"
     inkscape:zoom="0.25"
     inkscape:cx="526.80648"
     inkscape:cy="313.40131"
     inkscape:document-units="px"
     inkscape:current-layer="g4555"
     showgrid="false"
     units="px"
     inkscape:window-width="1254"
     inkscape:window-height="744"
     inkscape:window-x="12"
     inkscape:window-y="18"
     inkscape:window-maximized="0" />
  <metadata
     id="metadata5">
    <rdf:RDF>
      <cc:Work
         rdf:about="">
        <dc:format>image/svg+xml</dc:format>
        <dc:type
           rdf:resource="http://purl.org/dc/dcmitype/StillImage" />
        <dc:title />
      </cc:Work>
    </rdf:RDF>
  </metadata>
  <g
     inkscape:label="Layer 1"
     inkscape:groupmode="layer"
     id="layer1"
     transform="translate(0,541.75001)">
    <g
       id="g5615"
       transform="matrix(0.35156249,0,0,0.35156249,0,478.709)">
      <g
         id="g4555"
         transform="matrix(0.74999995,0,0,0.74999995,0,184.56254)">
        <path
           style="fill:#c99d5c;stroke-width:3.792593;fill-opacity:1;opacity:1"
           d="M 1861.2946,384.78678 C 1745.0479,278.27826 1650.6893,189.91767 1651.6087,188.43021 c 0.9194,-1.48783 104.1563,-3.92495 229.4153,-5.4162 l 227.7437,-2.7117 226.5645,68.97057 c 124.6104,37.9339 227.8817,70.15501 229.4917,71.60226 2.8717,2.58086 -481.9147,258.33702 -488.7078,257.82465 -1.9052,-0.14412 -98.5749,-87.40448 -214.8215,-193.91301 z m 1428.6765,-29.62925 c -110.3664,-43.38954 -201.1899,-80.461 -201.8299,-82.38119 -0.6401,-1.92019 74.1751,-50.16538 166.2559,-107.21129 l 167.4196,-103.720213 165.477,-31.024928 c 91.0124,-17.063634 172.0223,-32.2305927 180.0221,-33.7040151 11.4319,-2.1056476 14.273,-1.5500327 13.2741,2.59451285 C 3778.6462,7.7753557 3499.234,430.64909 3494.6521,432.46043 c -2.2082,0.87268 -94.3146,-33.91336 -204.681,-77.3029 z M 1093.3167,81.183268 c -3.5074,-4.528735 -65.5281,-404.961018 -65.5253,-423.059228 0,-7.46751 11.4027,-0.12099 79.4626,51.20004 l 79.4614,59.91842 24.373,54.99259 c 60.458,136.41123 82.8438,190.029772 81.1645,194.406045 -0.9953,2.593375 -36.586,15.577317 -79.0904,28.852909 -42.5045,13.275213 -84.7512,27.352939 -93.8815,31.283582 -19.6282,8.449898 -21.1727,8.592878 -25.9643,2.405642 z M 2622.8179,-80.952736 C 2499.8802,-153.84372 2396.8172,-215.95956 2393.789,-218.98757 c -6.9273,-6.92755 -24.4172,-2.37758 228.1275,-59.34839 l 204.1385,-46.05099 218.7356,13.92735 c 120.3046,7.66028 220.179,15.32245 221.9432,17.02684 3.7235,3.59766 -6.8093,12.62668 -236.2813,202.545706 -94.8157,78.47292 -175.0291,142.629561 -178.2518,142.570776 -3.2228,-0.05689 -106.4451,-59.7450968 -229.3828,-132.636458 z M 1374.8931,-241.18713 c -35.3439,-61.01334 -74.7704,-128.85335 -87.6145,-150.75557 -54.2996,-92.59389 -77.2886,-134.68803 -74.132,-135.74021 1.8484,-0.61614 73.9667,11.9601 160.2627,27.94724 l 156.902,29.0675 136.5333,85.3856 c 75.0934,46.96209 139.0202,87.70299 142.0597,90.53568 3.7568,3.50094 4.2876,6.38862 1.6575,9.01879 -4.8987,4.89889 -359.8323,155.47431 -366.4808,155.47431 -2.7094,0 -33.844,-49.92 -69.1879,-110.93334 z m 2537.0038,-97.29355 c -1.9964,-1.91462 -49.7099,-24.21704 -106.0299,-49.56096 -56.32,-25.34393 -104.6765,-48.31385 -107.4591,-51.04428 -4.2003,-4.12172 4.7292,-20.65947 52.6065,-97.4291 31.716,-50.8556 60.446,-95.73248 63.8441,-99.72639 7.2295,-8.4962 174.6759,-90.98718 177.9819,-87.6811 3.5183,3.51842 -67.4779,378.82201 -72.6707,384.15504 -2.8372,2.91396 -6.0541,3.41428 -8.2728,1.28679 z M 1918.6213,-600.85124 c -206.5779,-184.85758 -220.3573,-197.62026 -216.8984,-200.89422 1.6762,-1.58655 96.061,-5.82057 209.744,-9.40885 l 206.6963,-6.52417 196.3875,47.37881 c 108.0131,26.05838 197.4993,48.49069 198.8583,49.84962 1.3589,1.35892 0.8779,4.02303 -1.069,5.92027 -5.1361,5.00516 -430.9483,243.75302 -438.2224,245.70613 -3.9761,1.06762 -58.4403,-45.17638 -155.4963,-132.02759 z m 1405.5864,-64.10404 c -102.2103,-49.6406 -185.837,-92.25922 -185.837,-94.70802 0,-2.4488 65.355,-35.11574 145.2333,-72.59315 l 145.2333,-68.14084 156.2779,-15.04298 c 85.9527,-8.27365 158.4757,-15.86927 161.1621,-16.87916 2.6863,-1.00989 5.7763,0.48826 6.8664,3.32925 1.5153,3.94855 -207.9328,327.35524 -226.8406,350.26227 -2.1521,2.60741 -6.6907,4.58043 -10.0856,4.3845 -3.395,-0.19592 -89.7994,-40.97126 -192.0098,-90.61187 z M 1067.9988,-827.46975 c -1.799,-2.91096 -27.1714,-277.30435 -29.4181,-318.14755 -0.4846,-8.8084 0.2378,-17.1338 1.6048,-18.501 1.3672,-1.3672 10.4214,1.2443 20.1204,5.8034 9.699,4.5591 40.9113,18.6378 69.3607,31.2861 28.4493,12.6483 54.5374,25.777 57.9734,29.1748 7.6246,7.5399 86.129,146.82495 87.5514,155.33648 0.7296,4.36584 -19.3059,17.13983 -71.0431,45.29486 -39.6326,21.56779 -86.0226,46.82476 -103.0889,56.12658 -17.0664,9.30179 -31.9436,15.43366 -33.0606,13.62633 z m 1647.1498,-232.32655 c -73.859,-44.0009 -167.1424,-99.5381 -207.2965,-123.4161 -40.1541,-23.8779 -73.0074,-44.8646 -73.0074,-46.6371 0,-3.7033 7.2496,-5.0813 222.7405,-42.3383 l 160.1627,-27.6911 186.8595,12.3625 c 102.7728,6.7993 191.7598,13.2927 197.7489,14.4296 l 10.8893,2.0671 -8.993,8.6673 c -9.6732,9.3228 -351.6233,282.55779 -353.6175,282.55779 -0.6586,0 -61.6275,-36.00069 -135.4865,-80.00169 z m -1282.5559,-95.4057 c -121.1805,-203.2501 -146.9037,-247.3519 -146.9037,-251.8625 0,-6.6851 -1.1686,-6.7308 153.6,5.9957 l 132.7408,10.9151 122.7201,55.149 c 121.6919,54.687 128.4339,57.9625 125.3787,60.9148 -4.5906,4.436 -345.7299,172.9323 -350.1203,172.9323 -2.8565,0 -19.6935,-24.32 -37.4156,-54.0444 z m 2350.5188,-146.3723 c -62.5778,-36.8286 -113.7778,-68.8717 -113.7778,-71.2068 0,-2.3352 23.2706,-30.5937 51.7125,-62.7968 l 51.7125,-58.5511 62.0652,-16.4108 c 85.9591,-22.7284 97.5227,-25.1085 101.4461,-20.8795 3.0884,3.3288 -33.6422,291.2051 -37.6547,295.1216 -0.9493,0.9265 -52.926,-28.448 -115.5038,-65.2766 z m -1826.6496,-291.1771 c -155.8091,-128.4174 -169.2555,-140.136 -165.3173,-144.0742 1.4014,-1.4014 83.234,-6.4907 181.85,-11.3095 l 179.3019,-8.7615 171.6139,29.2028 c 94.3876,16.0616 171.8979,30.9095 172.2451,32.9954 0.5426,3.2606 -385.1745,221.6302 -391.7825,221.8034 -1.3268,0.034 -67.8868,-53.9006 -147.9111,-119.8564 z m 1322.2347,-31.0726 c -95.9526,-49.5789 -174.2774,-91.7812 -174.0552,-93.7829 0.2223,-2.0018 26.6756,-11.8772 58.7852,-21.9453 32.1096,-10.0682 87.7196,-27.6632 123.5776,-39.1001 l 65.1965,-20.7942 145.2077,-3.2569 c 79.8642,-1.7913 146.5304,-2.4394 148.1471,-1.4402 1.6167,0.9992 1.3818,4.6997 -0.522,8.2235 -10.2782,19.0241 -183.4071,260.6459 -187.2827,261.375 -2.5272,0.4754 -83.1016,-39.7001 -179.0542,-89.2789 z m -2123.7203,-58.3385 c -4.0845,-11.9816 -7.9033,-240.2593 -4.0915,-244.58 3.0221,-3.4258 20.456,-1.4524 73.6259,8.3338 60.5496,11.1444 70.4649,13.9652 75.7701,21.5552 3.3571,4.8031 20.2207,24.3709 37.4746,43.4841 17.2538,19.1133 31.3707,36.2286 31.3707,38.0342 0,1.8055 -45.4201,32.2475 -100.9334,67.6487 -122.3199,78.0042 -111.1631,71.5473 -113.2164,65.524 z m 1532.0758,-322.0479 c -70.9215,-39.8149 -151.7042,-85.2213 -179.5171,-100.9031 -30.0229,-16.9278 -49.18,-29.9011 -47.1505,-31.9307 1.8802,-1.8801 74.9829,-12.0146 162.4504,-22.5211 l 159.032,-19.1027 155.4964,9.7667 c 85.5229,5.3716 162.9885,10.7252 172.1456,11.8968 16.3187,2.0877 16.507,2.272 9.4815,9.2797 -11.0335,11.0054 -294.8948,215.7948 -299.1975,215.8535 -2.086,0.026 -61.8193,-32.5241 -132.7408,-72.3391 z m -1186.7263,-93.322 c -39.2617,-59.8995 -72.2259,-111.0995 -73.2537,-113.7778 -1.4878,-3.877 16.9619,-4.9362 90.5075,-5.1957 176.5046,-0.6227 159.3467,-2.3849 274.1188,28.1529 56.1541,14.9411 102.7303,29.0811 103.5029,31.4222 1.2041,3.6493 -312.4171,168.3065 -320.5721,168.3065 -1.6051,0 -35.0417,-49.0087 -74.3034,-108.9081 z m 2158.272,-28.7874 c -60.1388,-37.9504 -109.6321,-70.7075 -109.9852,-72.7935 -0.3531,-2.0859 19.5209,-17.3959 44.1643,-34.0222 l 44.8063,-30.2297 74.6604,-4.3239 c 54.7416,-3.1704 75.8274,-3.2 79.0344,-0.1112 3.2993,3.1779 2.171,27.5065 -4.5937,99.0278 -4.9322,52.1481 -9.0338,98.6548 -9.1147,103.3481 -0.081,4.6933 -2.2803,8.4371 -4.8877,8.3194 -2.6075,-0.1176 -53.9453,-31.2643 -114.0841,-69.2148 z m -1626.431,-323.3733 c -71.5998,-51.2529 -130.7503,-94.7729 -131.4456,-96.7111 -0.6953,-1.9381 1.0113,-3.6362 3.7926,-3.7735 2.7812,-0.1372 72.4701,-4.0619 154.8642,-8.7216 l 149.8074,-8.472 142.2222,14.2865 c 78.2223,7.8576 144.3556,14.3423 146.963,14.4105 17.7319,0.4637 -14.9777,19.6536 -163.4414,95.8869 -92.4178,47.4549 -169.0558,86.2815 -170.3066,86.2815 -1.2509,0 -60.856,-41.9342 -132.4558,-93.1872 z m 1135.2953,-9.9502 c -86.9261,-44.2666 -155.2994,-81.2679 -153.4989,-83.0684 1.7856,-1.7857 50.9635,-11.0251 109.2842,-20.5321 l 106.0376,-17.2854 123.3132,4.4461 c 67.8223,2.4453 125.5355,5.6082 128.2516,7.0285 6.023,3.1497 -4.8419,17.7234 -87.6242,117.5347 -32.9616,39.7422 -61.9749,72.1325 -64.474,71.9784 -2.4992,-0.1539 -75.0794,-36.1998 -161.2895,-80.1018 z m -1838.097,-55.2033 c 1.2643,-43.283 3.0803,-82.5363 4.0354,-87.2297 1.7236,-8.469 2.2512,-8.5333 70.0069,-8.5333 h 68.2702 l 34.3175,17.2353 c 19.3917,9.7391 33.6678,19.1838 32.8239,21.7155 -1.8089,5.4267 -199.8797,134.98 -206.8413,135.2899 -3.9398,0.1752 -4.4566,-15.3495 -2.6126,-78.4777 z m 1285.6278,-295.4998 c -81.3512,-40.7927 -148.7151,-74.9259 -149.6976,-75.8517 -5.5805,-5.2579 20.4092,-8.1371 142.9857,-15.8406 l 135.66,-8.5256 138.3724,8.0138 c 76.1047,4.4076 138.9956,8.6372 139.7575,9.3991 0.7619,0.7619 0.3637,3.0379 -0.8845,5.0578 -4.333,7.0109 -244.4215,152.3273 -251.3328,152.122 -3.8223,-0.1135 -73.5096,-33.5821 -154.8607,-74.3748 z m -936.7705,-3.5483 c -66.0604,-83.0484 -64.4781,-80.8262 -60.314,-84.7077 1.8838,-1.7559 52.9807,-6.0798 113.5488,-9.6085 108.282,-6.3086 111.3581,-6.2845 183.9407,1.4424 99.5007,10.5924 106.0542,11.5834 106.0542,16.0367 0,3.5071 -280.1202,143.5897 -287.13,143.5882 -1.6519,-4e-4 -26.8967,-30.0384 -56.0997,-66.7511 z m 1790.3966,-14.0901 c -58.2449,-35.8451 -106.0316,-66.8394 -106.1926,-68.8761 -0.1612,-2.0368 16.7739,-7.6669 37.6332,-12.5115 36.3905,-8.4518 40.5361,-8.6415 102.4,-4.6851 35.4608,2.2679 69.3878,5.0954 75.3935,6.2835 l 10.9195,2.16 -2.5255,55.5318 c -2.7795,61.1164 -5.63,87.9001 -9.3144,87.5196 -1.3276,-0.1373 -50.0688,-29.5771 -108.3137,-65.4222 z m -1909.8242,-249.6257 c 0.1097,-25.1092 8.4636,-100.32 11.557,-104.0474 1.9544,-2.3549 31.4716,-8.1748 65.5938,-12.9331 48.1611,-6.7161 69.4723,-8.0325 95.2612,-5.8843 26.8331,2.2352 32.2254,3.6735 28.0441,7.48 -2.8472,2.592 -45.2833,29.1294 -94.3026,58.9721 -49.0193,29.8426 -92.9659,56.762 -97.6593,59.8208 -8.0131,5.2224 -8.5309,5.0146 -8.4942,-3.4081 z m 1466.2605,-59.4818 c -74.839,-34.7961 -136.279,-64.9722 -136.5333,-67.0581 -0.8682,-7.1201 155.5304,-10.9774 236.5746,-5.8349 40.6756,2.5811 85.9022,5.4197 100.5037,6.308 38.3231,2.3316 63.0328,6.5836 61.775,10.6304 -1.5233,4.9012 -120.4166,119.8008 -123.6334,119.4805 -1.4386,-0.1434 -63.8476,-28.73 -138.6866,-63.5259 z m -891.3623,1.38 c -100.4461,-57.6997 -111.5526,-64.7017 -108.1024,-68.1519 0.9551,-0.9552 52.8947,-4.5992 115.4212,-8.0978 148.6994,-8.3203 387.5221,-3.982 383.8704,6.9732 -1.51,4.5299 -274.6219,127.8903 -283.1408,127.8903 -3.306,0 -51.9277,-26.3762 -108.0484,-58.6138 z m 1107.0777,-260.3596 c -52.1482,-29.2616 -96.5215,-55.0096 -98.6074,-57.2176 -7.4988,-7.9378 113.7901,5.9064 192.5952,21.9833 l 10.5508,2.1524 -1.0693,42.0297 c -0.6054,23.7961 -2.7146,42.5124 -4.8619,43.1424 -2.0859,0.612 -46.4593,-22.8286 -98.6074,-52.0902 z m -1344.5814,18.334 c -11.5316,-10.9091 -32.511,-30.7131 -46.6209,-44.0089 -14.11,-13.2958 -24.6446,-25.1841 -23.4102,-26.4184 2.1908,-2.1908 31.8639,-5.9108 81.5161,-10.2193 13.5585,-1.1765 40.8652,-3.7986 60.6815,-5.8269 54.213,-5.549 204.8,-9.1474 204.8,-4.894 0,4.3055 -240.0484,111.3884 -249.4539,111.2786 -3.6004,-0.042 -15.9811,-9.0021 -27.5126,-19.9111 z m 689.3829,-40.0456 c -68.3295,-28.4241 -123.657,-53.4247 -122.95,-55.5569 2.1905,-6.6061 195.0785,-8.564 323.0373,-3.2789 64.6637,2.6709 120.5571,4.909 124.2075,4.9736 3.6503,0.064 6.637,1.9278 6.637,4.1404 0,3.6879 -183.6094,95.1904 -199.6922,99.5174 -3.9605,1.0656 -60.9905,-20.5731 -131.2396,-49.7956 z m -763.6634,-194.9958 c 1.4043,-15.1103 4.6777,-29.5977 7.2743,-32.1942 4.9688,-4.9688 169.093,-44.4171 172.1361,-41.3739 0.971,0.9709 -5.622,6.0315 -14.6509,11.2457 -36.087,20.8405 -162.7657,89.7957 -164.9651,89.7957 -1.2913,0 -1.1988,-12.363 0.2056,-27.4733 z m 1045.8741,-44.2823 c -61.2144,-24.4301 -114.1211,-46.3389 -117.5704,-48.6862 -11.6105,-7.9009 39.1697,-5.4957 225.0767,10.6609 91.5956,7.9602 108.138,10.1533 108.0119,14.3193 -0.082,2.7087 -99.4923,69.1863 -102.4631,68.519 -0.9659,-0.2169 -51.8407,-20.3828 -113.0551,-44.813 z m -631.0489,-1.5337 c -45.3401,-19.2908 -84.361,-36.9987 -86.7132,-39.3508 -3.1737,-3.1737 0.9696,-4.8199 16.0663,-6.3832 33.454,-3.4645 219.5162,-9.774 302.8909,-10.2712 92.2562,-0.5503 89.7697,-0.6644 85.1437,3.9059 -3.2825,3.243 -215.9955,82.9471 -229.2622,85.9051 -3.1289,0.6977 -42.7854,-14.5149 -88.1255,-33.8058 z m 755.6219,-181.0995 c -49.0193,-24.964 -85.7126,-44.6673 -81.5408,-43.785 52.1516,11.0294 171.8736,42.3954 175.8185,46.0628 3.7849,3.5185 4.4452,9.9276 2.4886,24.1539 -1.4648,10.6505 -3.7832,19.2729 -5.1519,19.161 -1.3687,-0.1119 -42.5952,-20.6286 -91.6144,-45.5927 z m -913.4413,-0.1079 c -35.7598,-20.9311 -45.8269,-29.9478 -33.4366,-29.9478 2.7846,0 68.7957,-7.6599 146.6914,-17.0221 77.8957,-9.3622 142.2888,-16.3619 143.0958,-15.5548 1.7184,1.7183 -85.3605,35.9841 -189.0321,74.3847 l -28.8189,10.6747 z m 467.8116,-28.7717 c -98.6366,-32.2988 -103.1393,-33.9558 -100.1877,-36.8692 2.106,-2.0786 375.2013,7.9314 377.3954,10.1255 2.2241,2.2241 -165.5175,59.8055 -172.9435,59.367 -3.1113,-0.1837 -50.0301,-14.8642 -104.2642,-32.6233 z"
           id="path4561"
           inkscape:connector-curvature="0" />
        <path
           style="fill:#361802;stroke-width:3.792593;fill-opacity:1"
           d="m 2338.1336,250.47741 -227.5556,-69.95096 -223.763,2.22435 c -123.0696,1.22349 -227.8738,3.07845 -232.8981,4.12217 l -9.1352,1.89782 2.4633,-56.91014 c 1.4819,-34.238008 1.0448,-57.786597 -1.0972,-59.110212 -1.9582,-1.210217 -123.362,1.297066 -269.7862,5.571698 -146.4241,4.274632 -266.9507,7.047396 -267.8368,6.161067 -2.324,-2.323721 28.8797,-13.283936 110.3273,-38.751198 39.376,-12.312273 72.4067,-24.50546 73.4016,-27.09618 1.6773,-4.367929 -20.4135,-57.2856 -81.1532,-194.400735 l -24.3609,-54.99259 -77.5772,-58.42073 c -42.6674,-32.13122 -77.5771,-59.81677 -77.5771,-61.52352 0,-3.51596 3.2947,-4.50013 138.4074,-41.34343 95.0896,-25.92962 98.7876,-26.63201 104.2963,-19.80943 3.1411,3.89036 41.5109,68.84204 85.2661,144.33702 43.7552,75.49498 81.7819,137.2638 84.5036,137.2638 6.6634,0 361.5939,-150.56518 366.5031,-155.47431 2.6301,-2.63017 2.0993,-5.51785 -1.6575,-9.01879 -3.0395,-2.83269 -66.9663,-43.57359 -142.0597,-90.53568 l -136.5333,-85.3856 -157.3173,-29.14464 c -86.5245,-16.02955 -157.9432,-29.7706 -158.7083,-30.53568 -2.108,-2.108 14.6055,-10.14993 188.9737,-90.92723 151.8924,-70.36515 185.0122,-88.43344 176.2177,-96.13404 -2.0101,-1.76003 -116.2947,-25.84083 -253.9659,-53.51288 -137.6711,-27.67208 -251.1644,-51.23565 -252.2074,-52.3635 -1.043,-1.12784 -0.1896,-2.77587 1.8963,-3.66231 2.0859,-0.88645 48.1659,-25.89302 102.4,-55.57021 71.2488,-38.98771 98.3255,-55.63996 97.5913,-60.019 -1.2701,-7.5751 -79.4061,-147.11984 -86.6203,-154.69694 -2.9107,-3.0571 -34.4041,-18.6191 -69.9853,-34.582 -35.5812,-15.9629 -64.1656,-30.5283 -63.5209,-32.3674 1.1909,-3.3972 29.7612,-3.2902 250.0725,0.9364 l 123.7447,2.374 18.0499,29.858 c 9.9275,16.4219 20.3494,29.858 23.1599,29.858 4.4704,0 345.5989,-168.6329 350.2429,-173.1385 2.9697,-2.8812 -4.9471,-6.6861 -126.7721,-60.9293 -96.5682,-42.9973 -115.2147,-52.486 -105.0822,-53.4735 12.8002,-1.2475 74.5513,-44.5453 74.0135,-51.8958 -0.1525,-2.0859 -112.5895,-54.9926 -249.8598,-117.5703 -137.2703,-62.5778 -250.1195,-115.4845 -250.776,-117.5704 -0.6565,-2.086 45.7102,-33.6124 103.0371,-70.0589 57.3269,-36.4465 104.2308,-67.6916 104.2308,-69.4335 0,-1.742 -16.2134,-21.2871 -36.0297,-43.4336 -19.8163,-22.1464 -36.0296,-41.5827 -36.0296,-43.1917 0,-1.6089 8.1067,-0.5715 18.0148,2.3054 79.6366,23.1233 328.6302,89.3009 331.8974,88.2119 2.6606,-0.8869 4.448,-21.7813 5.0586,-59.1338 l 0.9442,-57.7623 -17.9632,-14.0777 c -9.8797,-7.7427 -26.8104,-20.051 -37.6236,-27.3518 -10.8133,-7.3007 -19.1421,-14.8399 -18.5085,-16.7538 0.6336,-1.9139 71.8834,-39.8554 158.3329,-84.3146 86.4494,-44.4591 157.1808,-82.9874 157.1808,-85.6183 0,-3.0565 -36.9676,-14.6504 -102.4,-32.115 -92.6497,-24.7291 -105.8933,-27.3499 -139.0868,-27.5242 -32.7299,-0.1718 -37.8431,-1.1503 -47.4074,-9.0715 -5.8964,-4.8834 -70.0273,-52.7934 -142.5133,-106.4666 -72.4859,-53.6732 -131.7532,-98.7443 -131.705,-100.1581 0.048,-1.4138 22.6614,-17.0147 50.2518,-34.6687 27.5904,-17.6541 75.5944,-48.7786 106.6756,-69.1656 l 56.5114,-37.0674 103.9822,53.4227 c 57.1902,29.3825 104.8022,52.6027 105.8044,51.6005 1.0022,-1.0022 5.9296,-33.1712 10.9499,-71.4867 l 9.1277,-69.6646 -7.7441,-14.9727 c -4.2592,-8.235 -36.3505,-65.4083 -71.3139,-127.0519 -34.9634,-61.6435 -65.7342,-116.3458 -68.3794,-121.5606 -4.3337,-8.5433 -4.2263,-8.9186 1.0852,-3.7926 3.2421,3.1289 27.4355,32.9956 53.7632,66.3704 26.3277,33.3748 49.3447,61.2071 51.1489,61.8496 5.1048,1.8177 288.3015,-138.5133 288.3015,-142.8607 0,-4.4535 -6.5229,-5.4397 -106.1927,-16.0552 -66.0354,-7.0332 -81.1685,-7.4388 -141.3078,-3.7872 l -67.3522,4.0895 -14.1885,-15.7786 c -7.8037,-8.6783 -41.01,-44.9063 -73.7917,-80.5067 -32.7818,-35.6004 -58.3818,-65.9075 -56.8889,-67.3491 1.4929,-1.4416 43.6743,-27.6224 93.7365,-58.1795 50.0623,-30.5572 95.5656,-58.7847 101.1185,-62.7278 12.0783,-8.5767 5.9509,-12.102 94.527,54.386 32.5116,24.4043 60.9132,44.3715 63.1147,44.3715 13.0568,0 7.768,-23.68 -40.8203,-182.7707 -27.381,-89.6528 -48.8557,-163.9332 -47.7214,-165.0675 1.1342,-1.1343 22.3581,16.932 47.1641,40.1472 24.806,23.2152 47.8686,42.2095 51.2503,42.2095 9.2821,0 249.0561,-107.2138 249.0561,-111.3643 0,-4.5989 -154.6873,-0.1084 -221.258,6.4229 -33.9813,3.3339 -50.2186,3.5802 -53.7374,0.815 -6.1242,-4.8126 -77.7158,-113.9414 -77.7158,-118.4641 0,-1.7644 38.02,-24.044 84.4888,-49.5102 46.4689,-25.4662 87.8555,-48.8472 91.9704,-51.9579 12.0946,-9.143 20.2661,-6.9134 40.9378,11.1697 10.7304,9.3866 20.8191,17.0666 22.4194,17.0666 4.8005,0 3.4296,-12.8646 -11.9226,-111.8815 -8.0854,-52.1481 -14.0446,-95.9067 -13.2428,-97.2413 0.8019,-1.3346 19.6005,8.3657 41.7748,21.5564 l 40.3169,23.9829 27.0361,-9.9706 c 14.8699,-5.4838 63.7294,-24.2742 108.5768,-41.7563 44.8474,-17.4821 85.1842,-32.6704 89.6374,-33.7518 6.4096,-1.5565 12.2534,3.0474 28.0471,22.0962 10.9728,13.2343 22.1826,24.5987 24.9108,25.2543 2.8394,0.6823 9.7692,-8.3341 16.2064,-21.0861 6.1853,-12.2531 13.523,-24.168 16.306,-26.4776 3.8075,-3.16 15.3841,-0.6481 46.7688,10.1475 22.9398,7.8908 72.6622,24.1983 110.4942,36.2388 l 68.7854,21.892 88.5598,-30.579 c 63.2694,-21.8464 89.3568,-29.3066 91.351,-26.1236 1.5353,2.4504 4.6643,13.4153 6.9533,24.3664 2.2892,10.9511 5.2716,19.9111 6.6277,19.9111 1.3561,0 12.0822,-9.5163 23.8359,-21.1474 l 21.3703,-21.1473 97.2028,48.6436 97.2026,48.6437 -27.4408,50.6316 -27.4408,50.6316 -30.3408,-2.2419 c -16.6874,-1.233 -58.5007,-4.7034 -92.9185,-7.712 -97.5851,-8.5303 -165.6211,-11.3528 -161.1852,-6.687 2.0859,2.194 55.8459,24.5527 119.4667,49.686 l 115.6741,45.697 51.2,-34.0579 c 34.4746,-22.9323 51.5765,-32.3259 52.3525,-28.7559 0.8998,4.1395 -37.1074,227.3529 -47.0448,276.29 -1.3539,6.6678 -0.5085,10.4296 2.344,10.4296 2.454,0 22.3276,-15.36 44.1636,-34.1333 21.8359,-18.7733 41.9436,-34.1333 44.6837,-34.1333 2.7401,0 14.2798,5.5466 25.6438,12.3259 11.364,6.7793 57.6105,32.8059 102.7701,57.837 45.1596,25.0312 81.7011,46.8538 81.2032,48.4947 -0.4978,1.641 -23.9243,32.9468 -52.0588,69.5685 l -51.1536,66.5849 -18.963,-2.0504 c -10.4296,-1.1277 -52.2429,-4.0822 -92.9185,-6.5656 -80.8054,-4.9334 -234.8557,-1.0034 -235.6713,6.0124 -0.3599,3.0969 265.6347,129.7194 274.3166,130.584 1.4386,0.1434 29.9115,-26.1929 63.2731,-58.5247 33.3616,-32.3319 61.5754,-58.7852 62.6972,-58.7852 2.0913,0 -22.5052,71.751 -77.3567,225.6593 l -31.0879,87.2296 0.5279,39.8016 c 0.2905,21.8908 1.7834,41.057 3.3178,42.5914 1.5344,1.5344 34.3117,-17.2725 72.8384,-41.7931 38.5268,-24.5206 76.3837,-48.4791 84.1266,-53.2412 l 14.078,-8.6583 10.5739,7.7555 c 5.8156,4.2655 54.9472,34.8047 109.1813,67.8648 54.234,33.0602 98.6074,62.1604 98.6074,64.6672 0,2.5068 -44.3734,44.7092 -98.6074,93.7831 l -98.6075,89.2252 -74.2047,-2.2372 -74.2048,-2.2371 -105.8423,17.2535 c -58.2133,9.4895 -107.3026,18.7139 -109.0874,20.4987 -2.8657,2.8657 307.6177,163.4519 316.024,163.4519 1.8186,0 29.9371,-32.4267 62.4856,-72.0593 32.5485,-39.6326 60.0487,-72.0593 61.1117,-72.0593 1.9836,0 -27.6493,43.6027 -95.3673,140.326 -46.3796,66.2452 -45.5448,64.7246 -50.6297,92.2311 -2.8372,15.3478 -12.2339,36.4453 -30.976,69.547 -14.7968,26.1338 -26.0966,49.6181 -25.1106,52.1875 1.888,4.9203 46.1003,32.5529 52.0846,32.5529 1.9183,0 71.3426,-25.8262 154.2764,-57.3915 82.9338,-31.5654 154.202,-58.2212 158.3739,-59.2353 4.1718,-1.014 -9.3978,9.8789 -30.1547,24.2064 -20.757,14.3275 -37.5541,27.7567 -37.327,29.8426 0.2272,2.086 50.8076,35.366 112.4012,73.9556 85.4868,53.5592 110.9238,71.2025 107.4899,74.5557 -2.474,2.4159 -97.8545,58.1963 -211.9565,123.9562 -114.1021,65.7599 -212.3865,123.2071 -218.4098,127.6603 -6.0234,4.4533 -61.1472,23.7784 -122.4974,42.9447 -61.3501,19.1664 -111.4122,36.5425 -111.2489,38.6137 0.1631,2.0711 78.1026,43.8724 173.1985,92.8917 95.0959,49.0192 174.0684,90.2942 175.4943,91.722 1.426,1.4279 -7.7672,7.8258 -20.4293,14.2177 -14.2166,7.1765 -22.2679,13.4365 -21.0502,16.3668 2.0758,4.9951 28.0293,25.071 42.1009,32.5664 6.7021,3.5699 47.1284,-1.3398 212.3852,-25.7942 224.7271,-33.2547 237.0174,-34.945 228.7594,-31.4619 -3.1289,1.3197 -31.9894,9.3358 -64.1347,17.8135 l -58.4459,15.4141 -52.7697,59.639 c -29.0233,32.8014 -51.7641,61.2659 -50.5352,63.2544 1.229,1.9885 52.5214,33.1269 113.9831,69.1965 61.4617,36.0696 110.4802,66.8495 108.9297,68.3997 -2.2573,2.2576 -471.9671,143.4216 -477.2214,143.4216 -4.7492,0 -0.1521,11.1517 7.2503,17.5879 4.7935,4.168 13.7535,20.9053 19.9111,37.1942 6.1576,16.2888 14.6089,31.7817 18.7808,34.4285 4.1718,2.64679 68.1718,17.99666 142.2222,34.11078 118.0734,25.69399 156.6431,35.43792 141.9146,35.85218 -2.2552,0.0633 -74.2869,6.8864 -160.0704,15.16214 l -155.9702,15.04681 -145.2333,68.14084 c -79.8783,37.47741 -145.2333,70.14234 -145.2333,72.58863 0,5.35871 372.9944,186.34777 380.9002,184.82523 3.0446,-0.58633 36.7908,-47.99371 74.9916,-105.34977 64.9665,-97.54295 70.1279,-104.21037 79.8488,-103.14882 25.1625,2.74781 303.1821,50.72839 310.0076,53.50112 6.0553,2.45976 -9.6267,11.47779 -77.7481,44.70917 -46.9334,22.89532 -88.1137,44.89562 -91.5123,48.88948 -3.3981,3.99391 -32.1281,48.87079 -63.8441,99.72639 -47.8773,76.76963 -56.8068,93.30738 -52.6065,97.4291 2.7826,2.73043 51.1391,25.70035 107.4591,51.04428 96.8515,43.583 115.5399,52.98783 105.293,52.98783 -7.1008,0 -433.9874,18.85981 -450.4189,19.89936 -8.4589,0.53513 -15.1704,2.91271 -15.1704,5.37372 0,2.42764 72.5334,67.89348 161.1852,145.4797 181.3022,158.6714659 176.6586,154.4749617 173.9392,157.1946301 -1.0971,1.0971972 -82.2793,17.0511188 -180.4047,35.4531589 L 3421.8805,61.805394 3254.5256,165.4854 c -92.0452,57.02391 -167.3549,104.7116 -167.3549,105.97264 0,1.26103 -40.5334,-7.64473 -90.0741,-19.79051 l -90.0741,-22.08313 -119.4667,14.85179 -119.4666,14.85142 -48.1312,30.88877 c -26.4721,16.98854 -49.5121,30.74503 -51.2,30.57019 -1.6879,-0.17445 -105.4689,-31.79634 -230.6244,-70.26916 z m 692.3189,-341.364464 c 229.472,-189.919026 240.0048,-198.948046 236.2813,-202.545706 -1.7642,-1.70439 -101.6386,-9.36656 -221.9432,-17.02684 l -218.7356,-13.92735 -204.1385,46.05099 c -252.5447,56.97081 -235.0548,52.42084 -228.1275,59.34839 8.9479,8.94748 452.0074,270.55448 458.4117,270.671292 3.2227,0.05689 83.4361,-64.097856 178.2518,-142.570776 z M 2294.5187,-590.77353 c 117.8549,-66.16872 215.8744,-121.85904 217.8213,-123.75625 1.9469,-1.89724 2.4279,-4.56135 1.069,-5.92027 -1.359,-1.35893 -90.8452,-23.79124 -198.8583,-49.84962 l -196.3875,-47.37881 -206.6963,6.52417 c -113.683,3.58828 -208.0678,7.8223 -209.744,9.40885 -3.4589,3.27396 10.3205,16.03664 216.8984,200.89422 97.056,86.85121 151.5202,133.09521 155.4963,132.02759 3.3658,-0.9037 102.5463,-55.78115 220.4011,-121.94988 z m 729.0274,-525.96637 c 94.4424,-75.3199 175.7603,-140.8455 180.7065,-145.6125 l 8.993,-8.6673 -10.8893,-2.0671 c -5.9891,-1.1369 -94.9761,-7.6303 -197.7489,-14.4296 l -186.8595,-12.3625 -160.1627,27.6911 c -215.4909,37.257 -222.7405,38.635 -222.7405,42.3383 0,1.7725 32.8533,22.7592 73.0074,46.6371 40.1541,23.878 133.4375,79.4152 207.2965,123.4161 73.859,44.001 134.8279,80.00169 135.4865,80.00169 0.6586,0 78.4685,-61.62539 172.911,-136.94529 z M 2301.786,-1581.932 c 107.2504,-59.9356 194.7166,-110.6805 194.3695,-112.7664 -0.347,-2.0859 -77.8575,-16.9338 -172.2451,-32.9954 l -171.6139,-29.2028 -179.3019,8.7615 c -98.616,4.8188 -180.4486,9.9081 -181.85,11.3095 -1.4014,1.4015 2.4845,7.4095 8.6352,13.3513 16.6276,16.0625 301.7854,250.653 304.5932,250.5793 1.3268,-0.034 90.1627,-49.1014 197.413,-109.037 z m 665.918,-454.3171 c 79.2652,-57.3794 147.3441,-107.5435 151.2864,-111.4757 7.0255,-7.0077 6.8372,-7.192 -9.4815,-9.2797 -9.1571,-1.1716 -86.6227,-6.5252 -172.1456,-11.8968 l -155.4964,-9.7667 -159.032,19.1027 c -87.4675,10.5065 -160.5702,20.641 -162.4504,22.5211 -2.0295,2.0296 17.1276,15.0029 47.1505,31.9307 204.7004,115.4161 309.0081,173.2865 312.2579,173.2422 2.0859,-0.03 68.6459,-46.9985 147.9111,-104.3778 z m -632.7748,-406.5383 c 148.4637,-76.2333 181.1733,-95.4232 163.4414,-95.8869 -2.6074,-0.068 -68.7407,-6.5529 -146.963,-14.4105 l -142.2222,-14.2865 -149.8074,8.472 c -82.3941,4.6597 -152.083,8.5844 -154.8642,8.7216 -2.7813,0.1373 -4.4879,1.8354 -3.7926,3.7735 1.3437,3.7456 260.0398,189.8983 263.9014,189.8983 1.2508,0 77.8888,-38.8266 170.3066,-86.2815 z m 562.9308,-367.3057 c 112.5475,-69.1035 127.8998,-79.3694 124.2109,-83.0583 -0.7619,-0.7619 -63.6528,-4.9915 -139.7575,-9.3991 l -138.3724,-8.0138 -135.66,8.5256 c -122.5765,7.7035 -148.5662,10.5827 -142.9857,15.8406 5.8766,5.537 298.8671,150.0575 304.5583,150.2265 3.8224,0.1134 61.4252,-33.2412 128.0064,-74.1215 z m -512.1658,-329.0815 c 75.8681,-34.1418 138.5026,-63.7582 139.188,-65.8142 3.6517,-10.9552 -235.171,-15.2935 -383.8704,-6.9732 -62.5265,3.4986 -114.4661,7.1426 -115.4212,8.0978 -0.9551,0.955 0.019,3.4919 2.1642,5.6373 7.6793,7.6793 208.0996,121.1284 213.9866,121.1284 3.306,0 68.0847,-27.9343 143.9528,-62.0761 z m 434.4658,-277.5028 c 88.612,-43.0487 107.5491,-54.6524 89.707,-54.9683 -3.6504,-0.064 -59.5438,-2.3027 -124.2075,-4.9736 -127.9588,-5.2851 -320.8468,-3.3272 -323.0373,3.2789 -1.7594,5.3062 245.3596,107.7282 254.1896,105.3525 3.8523,-1.0365 50.359,-22.9467 103.3482,-48.6895 z m -379.6264,-249.919 c 104.4734,-38.5071 124.4893,-47.1202 111.6918,-48.0628 -19.9187,-1.4672 -177.7846,1.1537 -263.3955,4.3728 -124.3138,4.6744 -144.6657,6.4837 -138.8091,12.3403 6.8892,6.8891 168.5921,74.5494 174.8387,73.1566 3.1289,-0.6976 55.1822,-19.5108 115.6741,-41.8069 z"
           id="path4559"
           inkscape:connector-curvature="0" />
      </g>
    </g>
  </g>
</svg>
