<?xml version="1.0" encoding="UTF-8" standalone="no"?>
<!-- Created with Inkscape (http://www.inkscape.org/) -->

<svg
   xmlns:dc="http://purl.org/dc/elements/1.1/"
   xmlns:cc="http://creativecommons.org/ns#"
   xmlns:rdf="http://www.w3.org/1999/02/22-rdf-syntax-ns#"
   xmlns:svg="http://www.w3.org/2000/svg"
   xmlns="http://www.w3.org/2000/svg"
   xmlns:sodipodi="http://sodipodi.sourceforge.net/DTD/sodipodi-0.dtd"
   xmlns:inkscape="http://www.inkscape.org/namespaces/inkscape"
   width="1280"
   height="1280"
   viewBox="0 0 1280 1280"
   version="1.1"
   id="svg8"
   inkscape:version="0.92.0 r"
   sodipodi:docname="logo_white.svg"
   inkscape:export-filename="/home/william/code/Pinecone_landing_page/from_scratch/avitar.png"
   inkscape:export-xdpi="96"
   inkscape:export-ydpi="96">
  <defs
     id="defs2">
    <marker
       inkscape:stockid="Arrow2Lend"
       orient="auto"
       refY="0.0"
       refX="0.0"
       id="Arrow2Lend"
       style="overflow:visible;"
       inkscape:isstock="true">
      <path
         id="path4513"
         style="fill-rule:evenodd;stroke-width:0.625;stroke-linejoin:round;stroke:#ffffff;stroke-opacity:1;fill:#ffffff;fill-opacity:1"
         d="M 8.7185878,4.0337352 L -2.2072895,0.016013256 L 8.7185884,-4.0017078 C 6.9730900,-1.6296469 6.9831476,1.6157441 8.7185878,4.0337352 z "
         transform="scale(1.1) rotate(180) translate(1,0)" />
    </marker>
    <marker
       inkscape:stockid="Arrow2Lstart"
       orient="auto"
       refY="0.0"
       refX="0.0"
       id="Arrow2Lstart"
       style="overflow:visible"
       inkscape:isstock="true">
      <path
         id="path4510"
         style="fill-rule:evenodd;stroke-width:0.625;stroke-linejoin:round;stroke:#ffffff;stroke-opacity:1;fill:#ffffff;fill-opacity:1"
         d="M 8.7185878,4.0337352 L -2.2072895,0.016013256 L 8.7185884,-4.0017078 C 6.9730900,-1.6296469 6.9831476,1.6157441 8.7185878,4.0337352 z "
         transform="scale(1.1) translate(1,0)" />
    </marker>
  </defs>
  <sodipodi:namedview
     id="base"
     pagecolor="#646464"
     bordercolor="#ffffff"
     borderopacity="1"
     inkscape:pageopacity="0"
     inkscape:pageshadow="2"
     inkscape:zoom="0.70710678"
     inkscape:cx="355.87094"
     inkscape:cy="538.89289"
     inkscape:document-units="px"
     inkscape:current-layer="g4571"
     showgrid="false"
     units="px"
     inkscape:window-width="2532"
     inkscape:window-height="1519"
     inkscape:window-x="12"
     inkscape:window-y="18"
     inkscape:window-maximized="0"
     inkscape:snap-global="false" />
  <metadata
     id="metadata5">
    <rdf:RDF>
      <cc:Work
         rdf:about="">
        <dc:format>image/svg+xml</dc:format>
        <dc:type
           rdf:resource="http://purl.org/dc/dcmitype/StillImage" />
        <dc:title />
      </cc:Work>
    </rdf:RDF>
  </metadata>
  <g
     inkscape:label="Layer 1"
     inkscape:groupmode="layer"
     id="layer1"
     transform="translate(0,541.75001)">
    <g
       id="g5615"
       transform="matrix(0.35156249,0,0,0.35156249,0,478.709)">
      <g
         id="g4555"
         transform="matrix(0.74999995,0,0,0.74999995,0,184.56254)">
        <g
           id="g4554"
           transform="matrix(0.84438654,0,0,0.84438654,390.64878,-258.86496)">
          <path
             inkscape:connector-curvature="0"
             id="path4559"
             d="m 2338.1336,250.47741 -227.5556,-69.95096 -223.763,2.22435 c -123.0696,1.22349 -227.8738,3.07845 -232.8981,4.12217 l -9.1352,1.89782 2.4633,-56.91014 c 1.4819,-34.238008 1.0448,-57.786597 -1.0972,-59.110212 -1.9582,-1.210217 -123.362,1.297066 -269.7862,5.571698 -146.4241,4.274632 -266.9507,7.047396 -267.8368,6.161067 -2.324,-2.323721 28.8797,-13.283936 110.3273,-38.751198 39.376,-12.312273 72.4067,-24.50546 73.4016,-27.09618 1.6773,-4.367929 -20.4135,-57.2856 -81.1532,-194.400735 l -24.3609,-54.99259 -77.5772,-58.42073 c -42.6674,-32.13122 -77.5771,-59.81677 -77.5771,-61.52352 0,-3.51596 3.2947,-4.50013 138.4074,-41.34343 95.0896,-25.92962 98.7876,-26.63201 104.2963,-19.80943 3.1411,3.89036 41.5109,68.84204 85.2661,144.33702 43.7552,75.49498 81.7819,137.2638 84.5036,137.2638 6.6634,0 361.5939,-150.56518 366.5031,-155.47431 2.6301,-2.63017 2.0993,-5.51785 -1.6575,-9.01879 -3.0395,-2.83269 -66.9663,-43.57359 -142.0597,-90.53568 l -136.5333,-85.3856 -157.3173,-29.14464 c -86.5245,-16.02955 -157.9432,-29.7706 -158.7083,-30.53568 -2.108,-2.108 14.6055,-10.14993 188.9737,-90.92723 151.8924,-70.36515 185.0122,-88.43344 176.2177,-96.13404 -2.0101,-1.76003 -116.2947,-25.84083 -253.9659,-53.51288 -137.6711,-27.67208 -251.1644,-51.23565 -252.2074,-52.3635 -1.043,-1.12784 -0.1896,-2.77587 1.8963,-3.66231 2.0859,-0.88645 48.1659,-25.89302 102.4,-55.57021 71.2488,-38.98771 98.3255,-55.63996 97.5913,-60.019 -1.2701,-7.5751 -79.4061,-147.11984 -86.6203,-154.69694 -2.9107,-3.0571 -34.4041,-18.6191 -69.9853,-34.582 -35.5812,-15.9629 -64.1656,-30.5283 -63.5209,-32.3674 1.1909,-3.3972 29.7612,-3.2902 250.0725,0.9364 l 123.7447,2.374 18.0499,29.858 c 9.9275,16.4219 20.3494,29.858 23.1599,29.858 4.4704,0 345.5989,-168.6329 350.2429,-173.1385 2.9697,-2.8812 -4.9471,-6.6861 -126.7721,-60.9293 -96.5682,-42.9973 -115.2147,-52.486 -105.0822,-53.4735 12.8002,-1.2475 74.5513,-44.5453 74.0135,-51.8958 -0.1525,-2.0859 -112.5895,-54.9926 -249.8598,-117.5703 -137.2703,-62.5778 -250.1195,-115.4845 -250.776,-117.5704 -0.6565,-2.086 45.7102,-33.6124 103.0371,-70.0589 57.3269,-36.4465 104.2308,-67.6916 104.2308,-69.4335 0,-1.742 -16.2134,-21.2871 -36.0297,-43.4336 -19.8163,-22.1464 -36.0296,-41.5827 -36.0296,-43.1917 0,-1.6089 8.1067,-0.5715 18.0148,2.3054 79.6366,23.1233 328.6302,89.3009 331.8974,88.2119 2.6606,-0.8869 4.448,-21.7813 5.0586,-59.1338 l 0.9442,-57.7623 -17.9632,-14.0777 c -9.8797,-7.7427 -26.8104,-20.051 -37.6236,-27.3518 -10.8133,-7.3007 -19.1421,-14.8399 -18.5085,-16.7538 0.6336,-1.9139 71.8834,-39.8554 158.3329,-84.3146 86.4494,-44.4591 157.1808,-82.9874 157.1808,-85.6183 0,-3.0565 -36.9676,-14.6504 -102.4,-32.115 -92.6497,-24.7291 -105.8933,-27.3499 -139.0868,-27.5242 -32.7299,-0.1718 -37.8431,-1.1503 -47.4074,-9.0715 -5.8964,-4.8834 -70.0273,-52.7934 -142.5133,-106.4666 -72.4859,-53.6732 -131.7532,-98.7443 -131.705,-100.1581 0.048,-1.4138 22.6614,-17.0147 50.2518,-34.6687 27.5904,-17.6541 75.5944,-48.7786 106.6756,-69.1656 l 56.5114,-37.0674 103.9822,53.4227 c 57.1902,29.3825 104.8022,52.6027 105.8044,51.6005 1.0022,-1.0022 5.9296,-33.1712 10.9499,-71.4867 l 9.1277,-69.6646 -7.7441,-14.9727 c -4.2592,-8.235 -36.3505,-65.4083 -71.3139,-127.0519 -34.9634,-61.6435 -65.7342,-116.3458 -68.3794,-121.5606 -4.3337,-8.5433 -4.2263,-8.9186 1.0852,-3.7926 3.2421,3.1289 27.4355,32.9956 53.7632,66.3704 26.3277,33.3748 49.3447,61.2071 51.1489,61.8496 5.1048,1.8177 288.3015,-138.5133 288.3015,-142.8607 0,-4.4535 -6.5229,-5.4397 -106.1927,-16.0552 -66.0354,-7.0332 -81.1685,-7.4388 -141.3078,-3.7872 l -67.3522,4.0895 -14.1885,-15.7786 c -7.8037,-8.6783 -41.01,-44.9063 -73.7917,-80.5067 -32.7818,-35.6004 -58.3818,-65.9075 -56.8889,-67.3491 1.4929,-1.4416 43.6743,-27.6224 93.7365,-58.1795 50.0623,-30.5572 95.5656,-58.7847 101.1185,-62.7278 12.0783,-8.5767 5.9509,-12.102 94.527,54.386 32.5116,24.4043 60.9132,44.3715 63.1147,44.3715 13.0568,0 7.768,-23.68 -40.8203,-182.7707 -27.381,-89.6528 -48.8557,-163.9332 -47.7214,-165.0675 1.1342,-1.1343 22.3581,16.932 47.1641,40.1472 24.806,23.2152 47.8686,42.2095 51.2503,42.2095 9.2821,0 249.0561,-107.2138 249.0561,-111.3643 0,-4.5989 -154.6873,-0.1084 -221.258,6.4229 -33.9813,3.3339 -50.2186,3.5802 -53.7374,0.815 -6.1242,-4.8126 -77.7158,-113.9414 -77.7158,-118.4641 0,-1.7644 38.02,-24.044 84.4888,-49.5102 46.4689,-25.4662 87.8555,-48.8472 91.9704,-51.9579 12.0946,-9.143 20.2661,-6.9134 40.9378,11.1697 10.7304,9.3866 20.8191,17.0666 22.4194,17.0666 4.8005,0 3.4296,-12.8646 -11.9226,-111.8815 -8.0854,-52.1481 -14.0446,-95.9067 -13.2428,-97.2413 0.8019,-1.3346 19.6005,8.3657 41.7748,21.5564 l 40.3169,23.9829 27.0361,-9.9706 c 14.8699,-5.4838 63.7294,-24.2742 108.5768,-41.7563 44.8474,-17.4821 85.1842,-32.6704 89.6374,-33.7518 6.4096,-1.5565 12.2534,3.0474 28.0471,22.0962 10.9728,13.2343 22.1826,24.5987 24.9108,25.2543 2.8394,0.6823 9.7692,-8.3341 16.2064,-21.0861 6.1853,-12.2531 13.523,-24.168 16.306,-26.4776 3.8075,-3.16 15.3841,-0.6481 46.7688,10.1475 22.9398,7.8908 72.6622,24.1983 110.4942,36.2388 l 68.7854,21.892 88.5598,-30.579 c 63.2694,-21.8464 89.3568,-29.3066 91.351,-26.1236 1.5353,2.4504 4.6643,13.4153 6.9533,24.3664 2.2892,10.9511 5.2716,19.9111 6.6277,19.9111 1.3561,0 12.0822,-9.5163 23.8359,-21.1474 l 21.3703,-21.1473 97.2028,48.6436 97.2026,48.6437 -27.4408,50.6316 -27.4408,50.6316 -30.3408,-2.2419 c -16.6874,-1.233 -58.5007,-4.7034 -92.9185,-7.712 -97.5851,-8.5303 -165.6211,-11.3528 -161.1852,-6.687 2.0859,2.194 55.8459,24.5527 119.4667,49.686 l 115.6741,45.697 51.2,-34.0579 c 34.4746,-22.9323 51.5765,-32.3259 52.3525,-28.7559 0.8998,4.1395 -37.1074,227.3529 -47.0448,276.29 -1.3539,6.6678 -0.5085,10.4296 2.344,10.4296 2.454,0 22.3276,-15.36 44.1636,-34.1333 21.8359,-18.7733 41.9436,-34.1333 44.6837,-34.1333 2.7401,0 14.2798,5.5466 25.6438,12.3259 11.364,6.7793 57.6105,32.8059 102.7701,57.837 45.1596,25.0312 81.7011,46.8538 81.2032,48.4947 -0.4978,1.641 -23.9243,32.9468 -52.0588,69.5685 l -51.1536,66.5849 -18.963,-2.0504 c -10.4296,-1.1277 -52.2429,-4.0822 -92.9185,-6.5656 -80.8054,-4.9334 -234.8557,-1.0034 -235.6713,6.0124 -0.3599,3.0969 265.6347,129.7194 274.3166,130.584 1.4386,0.1434 29.9115,-26.1929 63.2731,-58.5247 33.3616,-32.3319 61.5754,-58.7852 62.6972,-58.7852 2.0913,0 -22.5052,71.751 -77.3567,225.6593 l -31.0879,87.2296 0.5279,39.8016 c 0.2905,21.8908 1.7834,41.057 3.3178,42.5914 1.5344,1.5344 34.3117,-17.2725 72.8384,-41.7931 38.5268,-24.5206 76.3837,-48.4791 84.1266,-53.2412 l 14.078,-8.6583 10.5739,7.7555 c 5.8156,4.2655 54.9472,34.8047 109.1813,67.8648 54.234,33.0602 98.6074,62.1604 98.6074,64.6672 0,2.5068 -44.3734,44.7092 -98.6074,93.7831 l -98.6075,89.2252 -74.2047,-2.2372 -74.2048,-2.2371 -105.8423,17.2535 c -58.2133,9.4895 -107.3026,18.7139 -109.0874,20.4987 -2.8657,2.8657 307.6177,163.4519 316.024,163.4519 1.8186,0 29.9371,-32.4267 62.4856,-72.0593 32.5485,-39.6326 60.0487,-72.0593 61.1117,-72.0593 1.9836,0 -27.6493,43.6027 -95.3673,140.326 -46.3796,66.2452 -45.5448,64.7246 -50.6297,92.2311 -2.8372,15.3478 -12.2339,36.4453 -30.976,69.547 -14.7968,26.1338 -26.0966,49.6181 -25.1106,52.1875 1.888,4.9203 46.1003,32.5529 52.0846,32.5529 1.9183,0 71.3426,-25.8262 154.2764,-57.3915 82.9338,-31.5654 154.202,-58.2212 158.3739,-59.2353 4.1718,-1.014 -9.3978,9.8789 -30.1547,24.2064 -20.757,14.3275 -37.5541,27.7567 -37.327,29.8426 0.2272,2.086 50.8076,35.366 112.4012,73.9556 85.4868,53.5592 110.9238,71.2025 107.4899,74.5557 -2.474,2.4159 -97.8545,58.1963 -211.9565,123.9562 -114.1021,65.7599 -212.3865,123.2071 -218.4098,127.6603 -6.0234,4.4533 -61.1472,23.7784 -122.4974,42.9447 -61.3501,19.1664 -111.4122,36.5425 -111.2489,38.6137 0.1631,2.0711 78.1026,43.8724 173.1985,92.8917 95.0959,49.0192 174.0684,90.2942 175.4943,91.722 1.426,1.4279 -7.7672,7.8258 -20.4293,14.2177 -14.2166,7.1765 -22.2679,13.4365 -21.0502,16.3668 2.0758,4.9951 28.0293,25.071 42.1009,32.5664 6.7021,3.5699 47.1284,-1.3398 212.3852,-25.7942 224.7271,-33.2547 237.0174,-34.945 228.7594,-31.4619 -3.1289,1.3197 -31.9894,9.3358 -64.1347,17.8135 l -58.4459,15.4141 -52.7697,59.639 c -29.0233,32.8014 -51.7641,61.2659 -50.5352,63.2544 1.229,1.9885 52.5214,33.1269 113.9831,69.1965 61.4617,36.0696 110.4802,66.8495 108.9297,68.3997 -2.2573,2.2576 -471.9671,143.4216 -477.2214,143.4216 -4.7492,0 -0.1521,11.1517 7.2503,17.5879 4.7935,4.168 13.7535,20.9053 19.9111,37.1942 6.1576,16.2888 14.6089,31.7817 18.7808,34.4285 4.1718,2.64679 68.1718,17.99666 142.2222,34.11078 118.0734,25.69399 156.6431,35.43792 141.9146,35.85218 -2.2552,0.0633 -74.2869,6.8864 -160.0704,15.16214 l -155.9702,15.04681 -145.2333,68.14084 c -79.8783,37.47741 -145.2333,70.14234 -145.2333,72.58863 0,5.35871 372.9944,186.34777 380.9002,184.82523 3.0446,-0.58633 36.7908,-47.99371 74.9916,-105.34977 64.9665,-97.54295 70.1279,-104.21037 79.8488,-103.14882 25.1625,2.74781 303.1821,50.72839 310.0076,53.50112 6.0553,2.45976 -9.6267,11.47779 -77.7481,44.70917 -46.9334,22.89532 -88.1137,44.89562 -91.5123,48.88948 -3.3981,3.99391 -32.1281,48.87079 -63.8441,99.72639 -47.8773,76.76963 -56.8068,93.30738 -52.6065,97.4291 2.7826,2.73043 51.1391,25.70035 107.4591,51.04428 96.8515,43.583 115.5399,52.98783 105.293,52.98783 -7.1008,0 -433.9874,18.85981 -450.4189,19.89936 -8.4589,0.53513 -15.1704,2.91271 -15.1704,5.37372 0,2.42764 72.5334,67.89348 161.1852,145.4797 181.3022,158.6714659 176.6586,154.4749617 173.9392,157.1946301 -1.0971,1.0971972 -82.2793,17.0511188 -180.4047,35.4531589 L 3421.8805,61.805394 3254.5256,165.4854 c -92.0452,57.02391 -167.3549,104.7116 -167.3549,105.97264 0,1.26103 -40.5334,-7.64473 -90.0741,-19.79051 l -90.0741,-22.08313 -119.4667,14.85179 -119.4666,14.85142 -48.1312,30.88877 c -26.4721,16.98854 -49.5121,30.74503 -51.2,30.57019 -1.6879,-0.17445 -105.4689,-31.79634 -230.6244,-70.26916 z m 692.3189,-341.364464 c 229.472,-189.919026 240.0048,-198.948046 236.2813,-202.545706 -1.7642,-1.70439 -101.6386,-9.36656 -221.9432,-17.02684 l -218.7356,-13.92735 -204.1385,46.05099 c -252.5447,56.97081 -235.0548,52.42084 -228.1275,59.34839 8.9479,8.94748 452.0074,270.55448 458.4117,270.671292 3.2227,0.05689 83.4361,-64.097856 178.2518,-142.570776 z M 2294.5187,-590.77353 c 117.8549,-66.16872 215.8744,-121.85904 217.8213,-123.75625 1.9469,-1.89724 2.4279,-4.56135 1.069,-5.92027 -1.359,-1.35893 -90.8452,-23.79124 -198.8583,-49.84962 l -196.3875,-47.37881 -206.6963,6.52417 c -113.683,3.58828 -208.0678,7.8223 -209.744,9.40885 -3.4589,3.27396 10.3205,16.03664 216.8984,200.89422 97.056,86.85121 151.5202,133.09521 155.4963,132.02759 3.3658,-0.9037 102.5463,-55.78115 220.4011,-121.94988 z m 729.0274,-525.96637 c 94.4424,-75.3199 175.7603,-140.8455 180.7065,-145.6125 l 8.993,-8.6673 -10.8893,-2.0671 c -5.9891,-1.1369 -94.9761,-7.6303 -197.7489,-14.4296 l -186.8595,-12.3625 -160.1627,27.6911 c -215.4909,37.257 -222.7405,38.635 -222.7405,42.3383 0,1.7725 32.8533,22.7592 73.0074,46.6371 40.1541,23.878 133.4375,79.4152 207.2965,123.4161 73.859,44.001 134.8279,80.00169 135.4865,80.00169 0.6586,0 78.4685,-61.62539 172.911,-136.94529 z M 2301.786,-1581.932 c 107.2504,-59.9356 194.7166,-110.6805 194.3695,-112.7664 -0.347,-2.0859 -77.8575,-16.9338 -172.2451,-32.9954 l -171.6139,-29.2028 -179.3019,8.7615 c -98.616,4.8188 -180.4486,9.9081 -181.85,11.3095 -1.4014,1.4015 2.4845,7.4095 8.6352,13.3513 16.6276,16.0625 301.7854,250.653 304.5932,250.5793 1.3268,-0.034 90.1627,-49.1014 197.413,-109.037 z m 665.918,-454.3171 c 79.2652,-57.3794 147.3441,-107.5435 151.2864,-111.4757 7.0255,-7.0077 6.8372,-7.192 -9.4815,-9.2797 -9.1571,-1.1716 -86.6227,-6.5252 -172.1456,-11.8968 l -155.4964,-9.7667 -159.032,19.1027 c -87.4675,10.5065 -160.5702,20.641 -162.4504,22.5211 -2.0295,2.0296 17.1276,15.0029 47.1505,31.9307 204.7004,115.4161 309.0081,173.2865 312.2579,173.2422 2.0859,-0.03 68.6459,-46.9985 147.9111,-104.3778 z m -632.7748,-406.5383 c 148.4637,-76.2333 181.1733,-95.4232 163.4414,-95.8869 -2.6074,-0.068 -68.7407,-6.5529 -146.963,-14.4105 l -142.2222,-14.2865 -149.8074,8.472 c -82.3941,4.6597 -152.083,8.5844 -154.8642,8.7216 -2.7813,0.1373 -4.4879,1.8354 -3.7926,3.7735 1.3437,3.7456 260.0398,189.8983 263.9014,189.8983 1.2508,0 77.8888,-38.8266 170.3066,-86.2815 z m 562.9308,-367.3057 c 112.5475,-69.1035 127.8998,-79.3694 124.2109,-83.0583 -0.7619,-0.7619 -63.6528,-4.9915 -139.7575,-9.3991 l -138.3724,-8.0138 -135.66,8.5256 c -122.5765,7.7035 -148.5662,10.5827 -142.9857,15.8406 5.8766,5.537 298.8671,150.0575 304.5583,150.2265 3.8224,0.1134 61.4252,-33.2412 128.0064,-74.1215 z m -512.1658,-329.0815 c 75.8681,-34.1418 138.5026,-63.7582 139.188,-65.8142 3.6517,-10.9552 -235.171,-15.2935 -383.8704,-6.9732 -62.5265,3.4986 -114.4661,7.1426 -115.4212,8.0978 -0.9551,0.955 0.019,3.4919 2.1642,5.6373 7.6793,7.6793 208.0996,121.1284 213.9866,121.1284 3.306,0 68.0847,-27.9343 143.9528,-62.0761 z m 434.4658,-277.5028 c 88.612,-43.0487 107.5491,-54.6524 89.707,-54.9683 -3.6504,-0.064 -59.5438,-2.3027 -124.2075,-4.9736 -127.9588,-5.2851 -320.8468,-3.3272 -323.0373,3.2789 -1.7594,5.3062 245.3596,107.7282 254.1896,105.3525 3.8523,-1.0365 50.359,-22.9467 103.3482,-48.6895 z m -379.6264,-249.919 c 104.4734,-38.5071 124.4893,-47.1202 111.6918,-48.0628 -19.9187,-1.4672 -177.7846,1.1537 -263.3955,4.3728 -124.3138,4.6744 -144.6657,6.4837 -138.8091,12.3403 6.8892,6.8891 168.5921,74.5494 174.8387,73.1566 3.1289,-0.6976 55.1822,-19.5108 115.6741,-41.8069 z"
             style="fill:none;fill-opacity:1;stroke-width:3.792593" />
          <g
             id="g4571"
             transform="matrix(0.74999995,0,0,0.74999995,-115.66055,295.21881)">
            <path
               inkscape:connector-curvature="0"
               id="path4567"
               d="M 2567.0884,48.175286 C 2176.3073,-293.96843 2192.9803,-279.08168 2196.7041,-282.52699 c 1.4509,-1.34267 168.3719,-0.22158 370.9358,2.4937 l 368.2977,4.9341 387.7322,97.67476 c 213.2526,53.72118 387.7526,99.052762 387.7775,100.737387 0.042,2.760199 -682.6121,381.493773 -757.5046,420.261123 l -31.0855,16.09108 z M 4271.4377,3.2850701 C 4110.0418,-57.677661 3976.2534,-109.38483 3974.1302,-111.61922 c -2.1233,-2.23439 125.8855,-86.17283 284.464,-186.52993 l 288.3244,-182.46659 248.3237,-79.2485 c 136.578,-43.58659 248.8978,-78.67418 249.5996,-77.97236 2.0764,2.07635 -473.6901,752.32733 -476.9628,752.13749 -1.6469,-0.0958 -135.0455,-50.05249 -296.4414,-111.0158199 z M 1741.1143,-275.47647 c -0.048,-1.04563 -38.5938,-168.31226 -85.653,-371.70402 -47.0592,-203.39176 -83.5691,-369.80321 -81.1333,-369.80321 2.436,0 47.0434,46.87369 99.1277,104.16378 l 94.6988,104.16383 120.8035,211.74093 c 66.442,116.45752 121.6879,215.31864 122.7687,219.6904 1.3465,5.44734 -36.686,21.67736 -120.8035,51.55267 -137.1251,48.70083 -149.6791,52.90731 -149.8089,50.19562 z m 1730.8298,-253.41641 c -205.8621,-123.50211 -373.4222,-226.57904 -372.3558,-229.05981 1.0663,-2.48083 164.1091,-43.04156 362.3173,-90.13502 l 360.3784,-85.62439 275.4809,4.04933 c 151.5146,2.22715 311.493,5.72414 355.5077,7.77114 l 80.0267,3.72175 -340.0658,305.4245 c -187.0361,167.98348 -341.6248,306.09465 -343.5302,306.9133 -1.9054,0.81866 -171.897,-99.5588 -377.7592,-223.0608 z M 1926.2852,-856.94904 c -117.2433,-188.47976 -212.3354,-344.29876 -211.3159,-346.26446 1.4165,-2.7308 388.0135,80.3079 459.0044,98.5914 18.8607,4.8576 550.4524,306.3517 550.2807,312.09374 -0.1347,4.50184 -572.1309,278.77232 -580.6778,278.4333 -2.2669,-0.0898 -100.0481,-154.37424 -217.2914,-342.85398 z m 2978.4161,-90.12939 c -95.8934,-56.75407 -132.366,-81.31827 -129.9917,-87.54897 3.9916,-10.4749 196.5221,-313.1849 215.5496,-338.9023 15.9401,-21.5444 187.63,-161.3187 192.3527,-156.596 2.4949,2.4949 -71.5806,379.3119 -124.7144,634.4135 -3.2587,15.64552 -9.0702,28.23841 -12.9145,27.98425 -3.8443,-0.25392 -66.971,-35.96188 -140.2817,-79.35048 z M 2574.1064,-1221.7203 c -177.9303,-162.0706 -322.8527,-295.3307 -322.0498,-296.1335 0.8028,-0.8029 153.6607,-8.4713 339.6842,-17.041 l 338.2246,-15.5813 344.9301,76.6045 c 189.7115,42.1324 345.3155,79.2994 345.7865,82.5932 0.6368,4.4522 -651.299,423.74132 -712.8801,458.48503 -8.3723,4.7236 -67.7935,-46.72569 -333.6955,-288.92693 z m 1775.1846,-43.9436 c -151.5145,-83.5322 -280.7703,-155.107 -287.2351,-159.0553 -10.3449,-6.3178 19.0953,-22.6131 245.5373,-135.9057 l 257.2916,-128.7271 226.074,-30.9253 c 124.3407,-17.0089 226.074,-28.3932 226.074,-25.2983 0,10.3688 -380.2034,632.6546 -386.2721,632.2186 -3.2938,-0.2365 -129.9552,-68.7748 -281.4697,-152.3069 z m -2688.7101,-141.8253 c -1.4263,-4.2592 -23.1452,-134.4054 -48.2642,-289.2137 -25.119,-154.8083 -47.111,-287.5332 -48.8711,-294.9443 -1.8848,-7.9359 -0.4078,-13.4746 3.5938,-13.4746 3.7367,0 46.4738,21.6942 94.9715,48.2093 l 88.1775,48.2092 102.7664,141.9325 c 56.5216,78.0629 103.3664,144.6274 104.0996,147.9212 0.7332,3.2938 -60.3338,51.2039 -135.7045,106.4669 -158.5839,116.2765 -157.2488,115.4054 -160.769,104.8935 z m 1843.0029,-416.7615 c -188.4603,-123.8524 -341.849,-225.9922 -340.8637,-226.9775 0.9852,-0.9853 148.0966,-31.6384 326.9141,-68.1182 l 325.1228,-66.327 297.5771,21.4056 c 163.6673,11.7731 304.8231,21.4055 313.6795,21.4055 8.8564,0 16.1025,2.3531 16.1025,5.2291 0,5.194 -584.2542,535.919 -591.8877,537.6592 -2.1942,0.5 -158.1843,-100.4243 -346.6446,-224.2767 z m -1375.3749,75.3314 c -4.8235,-7.5127 -83.0959,-134.931 -173.9388,-283.1517 -129.3822,-211.1023 -162.8965,-269.8393 -154.6817,-271.0939 5.768,-0.8809 103.8721,3.4734 218.0092,9.6763 l 207.5222,11.2778 237.14,100.664 c 130.427,55.3651 237.097,102.2143 237.0444,104.1093 -0.073,2.626 -330.4732,203.8423 -539.4318,328.5182 l -22.8935,13.6595 z m 2773.9654,-344.9697 c -81.288,-68.1077 -147.9874,-125.2261 -148.2207,-126.9297 -0.3162,-2.3086 163.8746,-194.3918 190.5572,-222.9286 7.0791,-7.5711 183.201,-56.9741 185.186,-51.9455 1.7738,4.4934 -61.3127,475.1443 -68.3655,510.0343 -1.8311,9.058 -5.1362,16.2738 -7.3449,16.0354 -2.2085,-0.2384 -70.524,-56.1582 -151.8121,-124.2659 z m -2106.955,-235.385 c -464.9193,-411.5847 -429.755,-378.6911 -410.1011,-383.6191 19.6765,-4.9336 538.2822,-52.8615 571.7964,-52.8436 20.7622,0.012 611.5379,106.8263 616.3387,111.437 1.3724,1.3182 1.3724,3.4692 0,4.7803 -6.3199,6.0371 -640.6565,423.33 -647.5043,425.955 -4.2923,1.6455 -62.6319,-45.601 -130.5297,-105.7096 z m 1501.9952,-168.879 c -150.5124,-96.0908 -271.7839,-176.3182 -269.4922,-178.283 2.2917,-1.9648 102.3247,-38.0955 222.2955,-80.2905 l 218.1287,-76.7181 206.7375,4.1009 c 113.7057,2.2554 207.874,5.2373 209.2631,6.6263 3.3306,3.3306 -304.3744,500.3299 -309.3984,499.7343 -2.1314,-0.2527 -127.0218,-79.079 -277.5342,-175.1699 z m -2576.1509,-83.3827 c -5.6733,-53.5241 -15.5966,-147.1727 -22.0516,-208.1079 -6.4551,-60.9351 -13.242,-122.2446 -15.0821,-136.2432 l -3.3457,-25.4521 h 21.7941 c 11.9867,0 54.385,2.9741 94.2183,6.609 l 72.4244,6.6091 91.8036,84.7042 c 50.492,46.5874 91.1277,86.3446 90.3016,88.3495 -1.7146,4.161 -314.7961,280.848 -317.7898,280.848 -1.0767,0 -6.5994,-43.7924 -12.2728,-97.3166 z m 1787.578,-441.6415 c -165.3976,-108.2711 -301.2792,-198.9686 -301.9591,-201.5501 -0.6799,-2.5815 124.0777,-25.3142 277.2391,-50.517 l 278.4753,-45.8233 273.9837,30.2821 c 150.6911,16.6552 273.9838,32.1402 273.9838,34.411 0,3.2669 -437.3988,379.4376 -488.2991,419.9459 -12.3561,9.8335 -20.8601,4.7665 -313.4237,-186.7486 z m -1291.8752,98.3445 c -11.7444,-18.3594 -73.7673,-114.4052 -137.8286,-213.435 -64.0612,-99.0298 -115.7281,-180.7188 -114.8153,-181.5311 0.9128,-0.8123 90.5921,-8.8784 199.2873,-17.9247 l 197.6276,-16.4477 197.6276,55.3204 c 108.6952,30.4262 201.0691,57.2069 205.2753,59.5128 4.7464,2.6019 -92.196,69.3867 -255.532,176.0393 -144.7489,94.5158 -264.7792,171.847 -266.7341,171.847 -1.9549,0 -13.1633,-15.0215 -24.9078,-33.381 z m 2552.1799,-217.1383 c -85.3939,-78.1359 -156.0749,-144.6874 -157.0689,-147.8921 -0.9941,-3.2048 14.9752,-17.0136 35.4871,-30.686 20.5121,-13.6726 59.3879,-40.1405 86.3908,-58.8176 l 49.0962,-33.9584 87.2585,8.5239 c 47.9921,4.6881 88.8115,10.0769 90.7096,11.9751 1.8982,1.8982 -3.5714,89.2084 -12.1546,194.0228 -8.5832,104.8144 -15.5761,192.5928 -15.54,195.0631 0.036,2.4704 -1.9554,4.3437 -4.4257,4.163 -2.4704,-0.1808 -74.3592,-64.2579 -159.753,-142.3938 z m -2022.3232,-422.5341 c -127.1886,-102.48 -230.1481,-187.5714 -228.799,-189.092 1.3492,-1.5206 116.1923,-16.8853 255.2069,-34.1438 l 252.7538,-31.379 262.0063,37.0517 c 144.1035,20.3785 261.9822,38.4381 261.9526,40.1325 -0.048,2.8851 -532.2176,342.6118 -559.3694,357.0921 -11.2064,5.9765 -36.417,-12.6053 -243.7512,-179.6615 z m 1421.3231,-13.6651 c -139.2652,-90.9167 -251.7735,-166.7389 -250.0186,-168.4939 1.755,-1.755 87.8208,-21.1365 191.2572,-43.0698 l 188.0663,-39.8789 181.7266,25.6612 c 99.9496,14.1136 183.7477,25.7756 186.2181,25.9156 2.4703,0.1401 4.4915,2.4545 4.4915,5.1435 0,6.5164 -238.6186,357.062 -244.1875,358.7267 -2.3893,0.7142 -118.2884,-73.0878 -257.5536,-164.0044 z m -2249.4771,86.6054 c -7.1191,-57.0431 -16.5272,-305.572 -11.7234,-309.6883 2.8259,-2.4216 43.5089,-13.3309 90.4068,-24.243 l 85.2687,-19.8402 43.4886,19.2108 c 23.9188,10.5659 62.9479,29.1344 86.7314,41.2632 l 43.2427,22.0524 -146.9277,131.7518 c -80.8103,72.4634 -156.0068,139.2779 -167.1033,148.4764 l -20.1756,16.7247 z m 1557.9314,-547.6999 c -144.1229,-87.8091 -260.9806,-160.7138 -259.6839,-162.0106 1.2968,-1.2967 108.2397,-15.3902 237.651,-31.3188 l 235.2933,-28.9612 222.0182,29.4433 c 122.11,16.1939 228.3335,30.8352 236.0524,32.5363 11.7291,2.585 -20.6145,29.118 -196.9164,161.5395 -116.0229,87.1455 -211.2707,158.4414 -211.6619,158.4353 -0.391,-0.01 -118.6299,-71.8547 -262.7527,-159.6638 z m -1151.2954,23.5064 c -125.94,-170.0268 -125.132,-168.889 -122.0874,-171.9336 4.5263,-4.5262 332.5948,-63.1983 353.3773,-63.1983 18.8262,0 347.959,47.2838 351.1429,50.4458 1.1345,1.1267 -301.9097,196.7844 -474.6359,306.4442 -11.1513,7.0796 -18.5871,-1.3192 -107.7969,-121.7581 z m 2212.8305,-28.9802 c -87.2856,-77.3308 -159.4225,-142.6928 -160.3043,-145.2486 -0.8818,-2.556 34.1521,-14.8127 77.8533,-27.2373 l 79.4566,-22.5902 68.8702,24.0534 c 37.8787,13.2293 77.6288,27.1705 88.3336,30.9803 l 19.4633,6.927 v 55.36 c 0,80.1539 -7.2445,218.9991 -11.4087,218.6531 -1.9597,-0.1629 -74.9785,-63.5668 -162.264,-140.8977 z m -2350.559,-361.5633 c -2.3889,-58.8897 -2.7573,-109.6386 -0.8188,-112.7753 1.9386,-3.1366 42.8648,-22.6485 90.9472,-43.3597 l 87.4225,-37.6567 77.4054,7.8921 c 42.573,4.3408 77.4054,9.7937 77.4054,12.1176 0,4.3029 -19.6178,21.2459 -216.4104,186.9039 l -111.6079,93.9504 z m 1794.7538,-53.0788 c -208.3871,-128.8449 -227.8781,-142.2426 -212.5994,-146.1381 9.2514,-2.3587 83.1322,-9.8192 164.1796,-16.579 l 147.3589,-12.2904 162.8997,35.3868 c 89.5948,19.4627 164.4948,36.9818 166.4443,38.9313 1.9495,1.9495 -13.6647,24.4776 -34.6983,50.0625 -132.6648,161.3711 -156.9598,190.3616 -160.3672,191.3617 -2.0886,0.6131 -107.0365,-62.7176 -233.2176,-140.7348 z m -1106.0635,7.247 c -98.8138,-67.5239 -183.3306,-126.396 -187.8151,-130.8266 -11.3127,-11.1768 -15.7659,-10.3092 218.8188,-42.6303 l 204.6765,-28.2003 213.9511,21.7054 c 195.6887,19.8526 225.0473,23.8825 217.6115,29.8703 -9.5288,7.6731 -479.4184,273.407 -483.0245,273.162 -2.5062,-0.1704 -85.4045,-55.5566 -184.2183,-123.0805 z m 1377.2507,-325.8705 c -85.554,-69.2285 -156.5956,-128.9508 -157.8703,-132.7162 -1.7037,-5.0322 17.3376,-5.7894 71.8637,-2.8575 l 74.1814,3.9887 85.3401,41.5781 85.34,41.5781 v 68.4346 c 0,37.6391 1.6844,76.8563 3.743,87.1494 2.0586,10.2931 1.3156,18.7147 -1.6512,18.7147 -2.9667,0 -75.3928,-56.6414 -160.9467,-125.8699 z m -1699.9305,-6.582 c -49.0159,-52.5485 -88.0923,-96.4631 -86.8363,-97.5878 1.2559,-1.1246 71.004,-18.7469 154.9957,-39.1605 l 152.7123,-37.1158 151.215,4.2708 c 83.1683,2.3488 151.1721,5.9181 151.1196,7.9316 -0.082,3.1265 -420.6197,253.3671 -430.5462,256.1958 -1.9471,0.5546 -43.6442,-41.9855 -92.6601,-94.5341 z m 874.9387,-45.2327 c -121.157,-64.5471 -219.4607,-118.1832 -218.4525,-119.1913 1.0081,-1.0081 90.7043,-9.1625 199.325,-18.1208 l 197.492,-16.2876 176.6671,25.1477 c 229.801,32.7112 218.4108,30.5535 208.6272,39.5215 -11.7132,10.7366 -333.2595,206.7674 -338.7327,206.5084 -2.5524,-0.121 -103.7691,-53.0309 -224.9261,-117.5779 z m -926.0289,-183.1355 c 0.2886,-20.5862 2.3097,-50.5002 4.4915,-66.4755 l 3.9669,-29.0461 83.9597,-44.1026 c 77.4401,-40.6779 88.7142,-44.8167 145.187,-53.2988 33.6749,-5.0579 66.9456,-9.1962 73.9347,-9.1962 8.1067,0 -44.459,43.3235 -145.187,119.6598 -86.8419,65.8129 -159.9156,119.7113 -162.386,119.7743 -2.4703,0.063 -4.2554,-16.7287 -3.9668,-37.3149 z m 1267.6556,-120.3779 c -107.8334,-59.7797 -196.0921,-110.1024 -196.1304,-111.8281 -0.036,-1.7257 62.9706,-2.0909 140.0199,-0.8117 l 140.0897,2.3259 142.8772,37.345 c 78.5824,20.5398 142.8771,38.7837 142.8771,40.5422 0,7.7812 -155.9108,142.2616 -164.3051,141.7208 -5.1522,-0.3318 -97.595,-49.5142 -205.4284,-109.2941 z m -774.1113,4.6441 c -82.3448,-44.1699 -152.4128,-81.3071 -155.7066,-82.5272 -3.2938,-1.2201 -4.6249,-3.7265 -2.9581,-5.5698 1.6668,-1.8433 82.5145,-14.7858 179.6615,-28.7612 l 176.6309,-25.4098 179.6614,10.6014 c 98.8138,5.8308 181.009,12.036 182.6559,13.7894 1.6469,1.7534 -0.233,4.3441 -4.1781,5.7571 -3.9448,1.413 -92.2116,43.9837 -196.1485,94.6017 -103.9368,50.618 -193.684,93.3365 -199.4382,94.9299 -6.1597,1.7057 -72.0337,-30.1297 -160.1802,-77.4115 z m 959.3175,-209.5446 -136.6176,-97.6767 -25.0778,10.9315 c -13.7927,6.0123 -69.4248,31.446 -123.6268,56.5195 -54.2021,25.0734 -100.864,45.5881 -103.6931,45.5881 -2.8292,0 -79.1269,-32.3391 -169.5504,-71.8646 -90.4236,-39.5256 -167.7281,-71.8545 -171.7879,-71.8422 -4.0597,0.012 -82.7534,38.8536 -174.8749,86.3138 l -167.4935,86.2913 -18.1567,-12.7229 c -55.9351,-39.1951 -129.7456,-95.2272 -127.8884,-97.0844 1.1833,-1.1833 61.391,-18.5991 133.7949,-38.7017 147.3036,-40.8982 126.4065,-38.6635 502.9438,-53.785 l 149.7179,-6.0126 159.2714,23.1216 c 87.5993,12.7168 164.4046,25.7462 170.6784,28.9541 6.2739,3.2079 24.8149,9.1074 41.2023,13.11 16.3875,4.0026 66.8301,27.4844 112.095,52.1818 91.5905,49.9737 91.4521,49.7941 87.5532,113.6782 l -1.8723,30.6769 z"
               style="fill:#ffffff;fill-opacity:1;stroke-width:5.98871565" />
          </g>
        </g>
      </g>
    </g>
  </g>
</svg>
