<?xml version="1.0" encoding="UTF-8" standalone="no"?>
<!-- Created with Inkscape (http://www.inkscape.org/) -->

<svg
   xmlns:dc="http://purl.org/dc/elements/1.1/"
   xmlns:cc="http://creativecommons.org/ns#"
   xmlns:rdf="http://www.w3.org/1999/02/22-rdf-syntax-ns#"
   xmlns:svg="http://www.w3.org/2000/svg"
   xmlns="http://www.w3.org/2000/svg"
   xmlns:xlink="http://www.w3.org/1999/xlink"
   xmlns:sodipodi="http://sodipodi.sourceforge.net/DTD/sodipodi-0.dtd"
   xmlns:inkscape="http://www.inkscape.org/namespaces/inkscape"
   width="1280"
   height="1280"
   viewBox="0 0 1280 1280"
   version="1.1"
   id="svg8"
   inkscape:version="0.92.1 r"
   sodipodi:docname="white_on_grad.svg"
   inkscape:export-filename="/home/william/c++/Pinecone/other/Logo/white_on_grad_mid.png"
   inkscape:export-xdpi="18"
   inkscape:export-ydpi="18">
  <defs
     id="defs2">
    <marker
       inkscape:stockid="Arrow2Lend"
       orient="auto"
       refY="0.0"
       refX="0.0"
       id="Arrow2Lend"
       style="overflow:visible;"
       inkscape:isstock="true">
      <path
         id="path4513"
         style="fill-rule:evenodd;stroke-width:0.625;stroke-linejoin:round;stroke:#ffffff;stroke-opacity:1;fill:#ffffff;fill-opacity:1"
         d="M 8.7185878,4.0337352 L -2.2072895,0.016013256 L 8.7185884,-4.0017078 C 6.9730900,-1.6296469 6.9831476,1.6157441 8.7185878,4.0337352 z "
         transform="scale(1.1) rotate(180) translate(1,0)" />
    </marker>
    <marker
       inkscape:stockid="Arrow2Lstart"
       orient="auto"
       refY="0.0"
       refX="0.0"
       id="Arrow2Lstart"
       style="overflow:visible"
       inkscape:isstock="true">
      <path
         id="path4510"
         style="fill-rule:evenodd;stroke-width:0.625;stroke-linejoin:round;stroke:#ffffff;stroke-opacity:1;fill:#ffffff;fill-opacity:1"
         d="M 8.7185878,4.0337352 L -2.2072895,0.016013256 L 8.7185884,-4.0017078 C 6.9730900,-1.6296469 6.9831476,1.6157441 8.7185878,4.0337352 z "
         transform="scale(1.1) translate(1,0)" />
    </marker>
    <marker
       inkscape:isstock="true"
       style="overflow:visible;"
       id="Arrow2Lend-7"
       refX="0.0"
       refY="0.0"
       orient="auto"
       inkscape:stockid="Arrow2Lend">
      <path
         transform="scale(1.1) rotate(180) translate(1,0)"
         d="M 8.7185878,4.0337352 L -2.2072895,0.016013256 L 8.7185884,-4.0017078 C 6.9730900,-1.6296469 6.9831476,1.6157441 8.7185878,4.0337352 z "
         style="fill-rule:evenodd;stroke-width:0.625;stroke-linejoin:round;stroke:#ffffff;stroke-opacity:1;fill:#ffffff;fill-opacity:1"
         id="path4513-5" />
    </marker>
    <marker
       inkscape:isstock="true"
       style="overflow:visible"
       id="Arrow2Lstart-3"
       refX="0.0"
       refY="0.0"
       orient="auto"
       inkscape:stockid="Arrow2Lstart">
      <path
         transform="scale(1.1) translate(1,0)"
         d="M 8.7185878,4.0337352 L -2.2072895,0.016013256 L 8.7185884,-4.0017078 C 6.9730900,-1.6296469 6.9831476,1.6157441 8.7185878,4.0337352 z "
         style="fill-rule:evenodd;stroke-width:0.625;stroke-linejoin:round;stroke:#ffffff;stroke-opacity:1;fill:#ffffff;fill-opacity:1"
         id="path4510-5" />
    </marker>
    <linearGradient
       inkscape:collect="always"
       xlink:href="#linearGradient4535-6"
       id="linearGradient4537"
       x1="2570.2402"
       y1="1099.7788"
       x2="2594.1338"
       y2="-4327.8008"
       gradientUnits="userSpaceOnUse"
       gradientTransform="matrix(0.93294458,0,0,0.94674548,84.918723,-147.39758)" />
    <linearGradient
       inkscape:collect="always"
       id="linearGradient4535-6">
      <stop
         style="stop-color:#0750d7;stop-opacity:1"
         offset="0"
         id="stop4531" />
      <stop
         style="stop-color:#00eea7;stop-opacity:1"
         offset="1"
         id="stop4533" />
    </linearGradient>
  </defs>
  <sodipodi:namedview
     id="base"
     pagecolor="#ffffff"
     bordercolor="#666666"
     borderopacity="1.0"
     inkscape:pageopacity="0.0"
     inkscape:pageshadow="2"
     inkscape:zoom="0.64"
     inkscape:cx="474.58878"
     inkscape:cy="653.6607"
     inkscape:document-units="px"
     inkscape:current-layer="g4555"
     showgrid="false"
     units="px"
     inkscape:window-width="2532"
     inkscape:window-height="1519"
     inkscape:window-x="12"
     inkscape:window-y="18"
     inkscape:window-maximized="0"
     inkscape:snap-global="false" />
  <metadata
     id="metadata5">
    <rdf:RDF>
      <cc:Work
         rdf:about="">
        <dc:format>image/svg+xml</dc:format>
        <dc:type
           rdf:resource="http://purl.org/dc/dcmitype/StillImage" />
        <dc:title />
      </cc:Work>
    </rdf:RDF>
  </metadata>
  <g
     inkscape:label="Layer 1"
     inkscape:groupmode="layer"
     id="layer1"
     transform="translate(0,541.75001)">
    <g
       id="g5615"
       transform="matrix(0.35156249,0,0,0.35156249,0,478.709)">
      <g
         id="g4555"
         transform="matrix(0.74999995,0,0,0.74999995,0,184.56254)">
        <rect
           style="opacity:1;fill:url(#linearGradient4537);fill-opacity:1;fill-rule:nonzero;stroke:none;stroke-width:13.1881094;stroke-miterlimit:4;stroke-dasharray:none;stroke-dashoffset:0;stroke-opacity:1"
           id="rect4505"
           width="4854.519"
           height="4854.519"
           x="0"
           y="-4116.269"
           ry="2427.2595"
           inkscape:export-xdpi="4.8000002"
           inkscape:export-ydpi="4.8000002" />
        <path
           inkscape:connector-curvature="0"
           id="path4567"
           d="M 1918.6976,20.922617 C 1671.2199,-195.75353 1681.7788,-186.3259 1684.137,-188.50778 c 0.9188,-0.8503 106.6282,-0.14032 234.9099,1.57924 l 233.2392,3.12471 245.5469,61.85645 c 135.0507,34.021097 245.5598,62.729097 245.5755,63.795897 0.027,1.7481 -432.2913,241.596203 -479.72,266.147203 l -19.6861,10.1903 z M 2998.0448,-7.5058827 C 2895.8344,-46.112983 2811.1076,-78.858583 2809.7629,-80.273583 c -1.3446,-1.4151 79.722,-54.572397 180.1482,-118.127557 l 182.5929,-115.55424 157.2609,-50.18726 c 86.4935,-27.60295 157.6244,-49.82356 158.0689,-49.37911 1.315,1.31497 -299.9831,476.441267 -302.0557,476.321067 -1.043,-0.061 -85.523,-31.6978 -187.7333,-70.3051997 z M 1395.6166,-184.04276 c -0.03,-0.66219 -24.4411,-106.59044 -54.2432,-235.39634 -29.8021,-128.80598 -52.9234,-234.19266 -51.3809,-234.19266 1.5427,0 29.7921,29.68463 62.7766,65.96586 l 59.9718,65.9659 76.5036,134.09342 c 42.0771,73.75133 77.0637,136.35907 77.7482,139.12767 0.8527,3.44974 -23.2329,13.72805 -76.5036,32.64778 -86.84,30.84174 -94.7903,33.50566 -94.8725,31.78837 z m 1096.117,-160.48603 c -130.3704,-78.21264 -236.4845,-143.49018 -235.8092,-145.06126 0.6753,-1.57108 103.9287,-27.25778 229.4519,-57.0816 l 228.224,-54.22505 174.4592,2.5644 c 95.9527,1.41043 197.2654,3.62504 225.1395,4.92138 l 50.6801,2.35695 -215.3602,193.42224 c -118.4481,106.38223 -216.3476,193.84663 -217.5543,194.36508 -1.2066,0.51844 -108.8606,-63.04959 -239.231,-141.26214 z m -978.8501,-207.75464 c -74.249,-119.36231 -134.4699,-218.04091 -133.8243,-219.28576 0.8971,-1.72938 245.7251,50.85818 290.6829,62.43693 11.9442,3.07629 348.5959,194.00941 348.4872,197.64579 -0.085,2.851 -362.3247,176.54368 -367.7374,176.32898 -1.4356,-0.0569 -63.3594,-97.76364 -137.6084,-217.12594 z m 1886.2007,-57.07803 c -60.7283,-35.94176 -83.826,-51.49803 -82.3224,-55.44384 2.5278,-6.63367 124.4554,-198.33684 136.5053,-214.62341 10.0947,-13.64385 118.8242,-102.16149 121.815,-99.17065 1.58,1.57999 -45.3312,240.21438 -78.9803,401.76761 -2.0637,9.90815 -5.7441,17.8831 -8.1786,17.72214 -2.4346,-0.1608 -42.4121,-22.77429 -88.839,-50.25185 z M 1923.142,-783.28936 c -112.6814,-102.63765 -204.4593,-187.02994 -203.9508,-187.53834 0.5084,-0.50847 97.3117,-5.36481 215.1185,-10.7919 l 214.1942,-9.86749 218.4408,48.51288 c 120.1424,26.68199 218.6848,50.21951 218.9831,52.30543 0.4032,2.81953 -412.4611,268.35106 -451.4597,290.3539 -5.3022,2.99141 -42.933,-29.59091 -211.3261,-182.97448 z m 1124.2065,-27.82902 c -95.9526,-52.90011 -177.809,-98.22771 -181.9031,-100.72812 -6.5513,-4.001 12.0928,-14.32065 155.4963,-86.06771 l 162.9401,-81.52159 143.1704,-19.5847 c 78.7437,-10.7715 143.1704,-17.9811 143.1704,-16.0211 0,6.5664 -240.779,400.65372 -244.6222,400.37762 -2.0859,-0.14981 -82.2993,-43.55437 -178.2519,-96.4544 z m -1702.7329,-89.81653 c -0.9033,-2.69733 -14.6576,-85.11758 -30.5652,-183.15609 -15.9076,-98.0386 -29.8349,-182.0919 -30.9496,-186.7853 -1.1936,-5.0257 -0.2582,-8.5333 2.2759,-8.5333 2.3665,0 29.4314,13.7387 60.1445,30.5304 l 55.8419,30.5304 65.081,89.8845 c 35.7945,49.4364 65.4608,91.591 65.9252,93.677 0.4643,2.0859 -38.2088,32.4269 -85.9403,67.4244 -100.4296,73.63672 -99.5841,73.08505 -101.8134,66.42799 z m 1167.1551,-263.93089 c -119.35,-78.4345 -216.4895,-143.1185 -215.8655,-143.7425 0.6239,-0.624 93.788,-20.0363 207.0313,-43.1386 l 205.897,-42.0042 188.4526,13.5559 c 103.6488,7.4558 193.0414,13.5559 198.65,13.5559 5.6087,0 10.1976,1.4902 10.1976,3.3115 0,3.2894 -370.0023,339.3921 -374.8365,340.4942 -1.3896,0.3167 -100.1765,-63.5977 -219.5265,-142.0322 z m -871.011,47.7066 c -3.0547,-4.7577 -52.6238,-85.4504 -110.1537,-179.3171 -81.9364,-133.6889 -103.1607,-170.8865 -97.9583,-171.681 3.6528,-0.5579 65.7811,2.1997 138.063,6.1279 l 131.4217,7.1421 150.1783,63.7495 c 82.5981,35.0622 150.1511,64.7313 150.1178,65.9314 -0.046,1.663 -209.2853,129.0913 -341.6166,208.0472 l -14.4983,8.6505 z m 1756.7241,-218.4658 c -51.4788,-43.1319 -93.7189,-79.3044 -93.8666,-80.3833 -0.2002,-1.462 103.7801,-123.1063 120.6779,-141.1784 4.4832,-4.7947 116.0194,-36.0811 117.2764,-32.8966 1.1234,2.8457 -38.8286,300.9041 -43.2951,322.9996 -1.1596,5.7363 -3.2527,10.306 -4.6515,10.155 -1.3986,-0.1509 -44.6621,-35.5644 -96.1411,-78.6963 z m -1334.3132,-149.0669 c -294.4287,-260.6524 -272.1595,-239.8213 -259.7129,-242.9421 12.461,-3.1244 340.8887,-33.4766 362.1129,-33.4653 13.1485,0.01 387.2808,67.652 390.3211,70.5719 0.8691,0.8348 0.8691,2.197 0,3.0273 -4.0024,3.8232 -405.7213,268.0906 -410.0579,269.753 -2.7183,1.0421 -39.6642,-28.8787 -82.6632,-66.9448 z m 951.1984,-106.9494 c -95.318,-60.8533 -172.118,-111.6605 -170.6667,-112.9048 1.4513,-1.2443 64.8012,-24.1255 140.7775,-50.8472 l 138.1386,-48.5848 130.9248,2.5971 c 72.0087,1.4283 131.6445,3.3167 132.5242,4.1964 2.1093,2.1092 -192.7572,316.8538 -195.9388,316.4767 -1.3499,-0.1601 -80.4417,-50.08 -175.7596,-110.9334 z m -1631.4503,-52.8054 c -3.5928,-33.8963 -9.8772,-93.203 -13.9651,-131.7926 -4.0879,-38.5896 -8.386,-77.4163 -9.5513,-86.2815 l -2.1188,-16.1185 h 13.802 c 7.591,0 34.4414,1.8835 59.6675,4.1854 l 45.8656,4.1855 58.1383,53.6423 c 31.9761,29.5033 57.7103,54.6812 57.1871,55.9508 -1.0859,2.6351 -199.3572,177.8582 -201.2531,177.8582 -0.6818,0 -4.1793,-27.7333 -7.7722,-61.6296 z m 1132.055,-279.6871 c -104.7446,-68.567 -190.797,-126.0048 -191.2276,-127.6396 -0.4306,-1.6349 78.5771,-16.0312 175.5727,-31.9919 l 176.3556,-29.0194 173.5111,19.1773 c 95.4312,10.5476 173.5112,20.3541 173.5112,21.7921 0,2.0689 -277.0003,240.294 -309.2349,265.9475 -7.825,6.2275 -13.2105,3.0186 -198.4881,-118.266 z m -818.1314,62.2806 c -7.4376,-11.6268 -46.7161,-72.4517 -87.2855,-135.1662 -40.5693,-62.7146 -73.2894,-114.4474 -72.7114,-114.9618 0.5781,-0.5145 57.3711,-5.6226 126.2066,-11.3516 l 125.1556,-10.4161 125.1556,35.0338 c 68.8355,19.2686 127.335,36.2286 129.9987,37.6889 3.0059,1.6477 -58.3867,43.9418 -161.8258,111.4839 -91.668,59.8559 -167.682,108.829 -168.92,108.829 -1.238,0 -8.3362,-9.513 -15.7738,-21.1399 z m 1616.2696,-137.5115 c -54.0791,-49.4827 -98.8406,-91.6291 -99.4701,-93.6586 -0.6296,-2.0295 9.4836,-10.7745 22.4736,-19.4331 12.9901,-8.6587 37.6098,-25.4206 54.7104,-37.2486 l 31.0921,-21.5055 55.26,5.3981 c 30.3929,2.9689 56.2434,6.3816 57.4454,7.5837 1.2021,1.2021 -2.2617,56.4948 -7.6974,122.8727 -5.4356,66.3779 -9.8641,121.9671 -9.8413,123.5315 0.023,1.5644 -1.2383,2.7508 -2.8027,2.6363 -1.5645,-0.1145 -47.0909,-40.6938 -101.17,-90.1765 z m -1280.7167,-267.5866 c -80.5473,-64.8995 -145.7505,-118.787 -144.8961,-119.75 0.8544,-0.963 73.5834,-10.6933 161.6199,-21.6229 l 160.0664,-19.872 165.9259,23.4644 c 91.2593,12.9055 165.9107,24.3425 165.892,25.4155 -0.03,1.8271 -337.048,216.9726 -354.243,226.1429 -7.0969,3.7848 -23.0625,-7.9829 -154.3651,-113.7779 z m 900.1095,-8.6539 c -88.1953,-57.5766 -159.4456,-105.5941 -158.3343,-106.7055 1.1114,-1.1114 55.616,-13.3856 121.1213,-27.2757 l 119.1004,-25.2549 115.0857,16.251 c 63.297,8.938 116.3655,16.3234 117.93,16.4121 1.5644,0.089 2.8444,1.5544 2.8444,3.2573 0,4.1268 -151.1147,226.1238 -154.6415,227.178 -1.5131,0.4523 -74.9108,-46.2858 -163.106,-103.8623 z m -1424.5711,54.8463 c -4.5085,-36.1248 -10.4665,-193.5157 -7.4243,-196.1225 1.7896,-1.5335 27.5537,-8.4423 57.2537,-15.3528 l 53.9998,-12.5646 27.5409,12.166 c 15.1475,6.6913 39.8643,18.4505 54.9261,26.1316 l 27.3852,13.9655 -93.0479,83.4371 c -51.1763,45.8903 -98.7975,88.2033 -105.8248,94.0286 l -12.777,10.5916 z m 986.6222,-346.8528 c -91.2716,-55.6086 -165.2764,-101.7784 -164.4552,-102.5997 0.8212,-0.8211 68.5471,-9.7464 150.5019,-19.8339 l 149.0089,-18.3408 140.6019,18.6462 c 77.331,10.2554 144.6013,19.5276 149.4896,20.6049 7.4279,1.637 -13.055,18.4401 -124.7052,102.3013 -73.4761,55.1884 -133.7956,100.3393 -134.0433,100.3355 -0.2477,-0.01 -75.1271,-45.5049 -166.3986,-101.1135 z m -729.1037,14.8864 c -79.7566,-107.6763 -79.2449,-106.9557 -77.3168,-108.8838 2.8665,-2.8664 210.629,-40.0229 223.7903,-40.0229 11.9224,0 220.3589,29.9444 222.3752,31.9468 0.7185,0.7135 -191.1963,124.6216 -300.5821,194.068 -7.062,4.4835 -11.771,-0.8354 -68.2666,-77.1081 z m 1401.3631,-18.3529 c -55.2771,-48.9728 -100.9607,-90.3659 -101.5191,-91.9845 -0.5584,-1.6187 21.6282,-9.3807 49.3037,-17.2491 l 50.3191,-14.3061 43.6148,15.2327 c 23.9882,8.378 49.1615,17.2068 55.9407,19.6196 l 12.3259,4.3868 v 35.0589 c 0,50.7606 -4.5878,138.6899 -7.225,138.4708 -1.241,-0.1032 -47.4831,-40.2562 -102.7601,-89.2291 z M 1678.23,-2800.0526 c -1.5129,-37.2942 -1.7462,-69.433 -0.5186,-71.4194 1.2277,-1.9864 27.1459,-14.3431 57.596,-27.4593 l 55.3638,-23.8476 49.02,4.998 c 26.9611,2.749 49.0201,6.2022 49.0201,7.674 0,2.7249 -12.4237,13.4547 -137.0505,118.3643 l -70.6802,59.4978 z m 1136.5994,-33.6143 c -131.9694,-81.5961 -144.3129,-90.0808 -134.6371,-92.5477 5.8589,-1.4938 52.6468,-6.2184 103.9733,-10.4993 l 93.3209,-7.7834 103.1627,22.4101 c 56.7395,12.3255 104.1729,23.4202 105.4075,24.6548 1.2346,1.2346 -8.6537,15.5014 -21.9741,31.7041 -84.0152,102.1946 -99.401,120.554 -101.5589,121.1874 -1.3226,0.3883 -67.7851,-39.7184 -147.6943,-89.126 z m -700.4588,4.5895 c -62.5778,-42.7622 -116.1014,-80.0453 -118.9414,-82.8512 -7.1642,-7.0781 -9.9844,-6.5287 138.5757,-26.9973 l 129.6196,-17.859 135.493,13.7458 c 123.9277,12.5725 142.5202,15.1246 137.8112,18.9166 -6.0345,4.8593 -303.6108,173.1459 -305.8945,172.9907 -1.5872,-0.1079 -54.0858,-35.1834 -116.6636,-77.9456 z m 872.1989,-206.3705 c -54.1805,-43.8417 -99.1704,-81.6632 -99.9777,-84.0478 -1.0789,-3.1868 10.9797,-3.6664 45.5106,-1.8096 l 46.9783,2.526 54.045,26.331 54.045,26.331 v 43.3389 c 0,23.8364 1.0667,48.6723 2.3704,55.1908 1.3037,6.5186 0.8332,11.8519 -1.0457,11.8519 -1.8788,0 -47.7455,-35.8705 -101.9259,-79.7122 z m -1076.5488,-4.1683 c -31.0412,-33.2784 -55.7879,-61.0891 -54.9925,-61.8013 0.7953,-0.7123 44.9661,-11.8723 98.1572,-24.8 l 96.7111,-23.5051 95.763,2.7047 c 52.6696,1.4875 95.7357,3.7479 95.7025,5.023 -0.052,1.98 -266.3742,160.4548 -272.6606,162.2462 -1.233,0.3512 -27.6394,-26.589 -58.6807,-59.8675 z m 554.0899,-28.6454 c -76.7276,-40.877 -138.9823,-74.8442 -138.3438,-75.4827 0.6384,-0.6384 57.4421,-5.8025 126.2305,-11.4757 l 125.0697,-10.3147 111.8814,15.9257 c 145.5307,20.7157 138.3174,19.3493 132.1215,25.0286 -7.4178,6.7994 -211.0498,130.9437 -214.5159,130.7797 -1.6165,-0.077 -65.7159,-33.584 -142.4434,-74.4609 z m -586.4448,-115.9779 c 0.1828,-13.037 1.4627,-31.9812 2.8445,-42.0982 l 2.5121,-18.3946 53.1709,-27.9297 c 49.042,-25.761 56.1818,-28.382 91.9454,-33.7536 21.326,-3.2032 42.396,-5.8239 46.8221,-5.8239 5.1339,0 -28.1554,27.4364 -91.9454,75.7794 -54.9961,41.6786 -101.273,75.8119 -102.8374,75.8518 -1.5645,0.04 -2.6949,-10.5941 -2.5122,-23.6312 z m 802.7935,-76.234 c -68.2898,-37.8579 -124.1832,-69.7268 -124.2074,-70.8197 -0.023,-1.0928 39.8786,-1.3241 88.6731,-0.514 l 88.7174,1.473 90.4827,23.6502 c 49.7655,13.0076 90.4827,24.5613 90.4827,25.6749 0,4.9278 -98.7368,90.0929 -104.0528,89.7504 -3.2628,-0.2101 -61.8059,-31.3568 -130.0957,-69.2148 z m -490.2369,2.941 c -52.1481,-27.9724 -96.5215,-51.4909 -98.6074,-52.2636 -2.0859,-0.7727 -2.9289,-2.36 -1.8733,-3.5273 1.0556,-1.1674 52.2556,-9.3637 113.7778,-18.2142 l 111.8585,-16.0918 113.7778,6.7138 c 62.5778,3.6926 114.6311,7.6223 115.6741,8.7327 1.043,1.1104 -0.1475,2.751 -2.6459,3.6459 -2.4982,0.8948 -58.3967,27.8544 -124.2189,59.9103 -65.8221,32.0559 -122.6581,59.109 -126.3022,60.1181 -3.9009,1.0802 -45.6182,-19.0808 -101.4405,-49.0239 z m 607.5261,-132.7025 -86.5186,-61.8576 -15.8815,6.9228 c -8.7348,3.8075 -43.966,19.9144 -78.2916,35.7932 -34.3256,15.8787 -63.8761,28.8705 -65.6678,28.8705 -1.7917,0 -50.1102,-20.48 -107.3745,-45.5111 -57.2644,-25.0312 -106.2205,-45.5048 -108.7916,-45.497 -2.5709,0.01 -52.4069,24.6056 -110.7465,54.6617 l -106.0719,54.6474 -11.4984,-8.0573 c -35.4232,-24.8218 -82.1666,-60.3064 -80.9905,-61.4826 0.7494,-0.7493 38.8783,-11.7786 84.731,-24.5094 93.2859,-25.9004 80.052,-24.4852 318.5092,-34.0615 l 94.8148,-3.8077 100.865,14.6427 c 55.4757,8.0534 104.1157,16.3048 108.0889,18.3363 3.9732,2.0316 15.715,5.7677 26.093,8.3025 10.378,2.5348 42.3228,17.4055 70.9886,33.0462 58.0033,31.6478 57.9157,31.5341 55.4466,71.9912 l -1.1858,19.4274 z"
           style="fill:#ffffff;fill-opacity:1;stroke-width:3.792593" />
      </g>
    </g>
  </g>
</svg>
